<svg id="Layer_1" data-name="Layer 1" xmlns="http://www.w3.org/2000/svg" xmlns:xlink="http://www.w3.org/1999/xlink" viewBox="0 0 753.52 136.14"><defs><style>.cls-1{clip-path:url(#clip-path);}.cls-2{fill:#fff;fill-rule:evenodd;}</style><clipPath id="clip-path" transform="translate(0.02 -1.98)"/></defs><g class="cls-1"><path class="cls-2" d="M437.18,91.9c1.9,3.93,5.19,6.41,9.7,5.09.88-1.9,1.79-3.77,2.69-5.65l-5.06-1.59c-2.44.71-4.9,1.42-7.33,2.15m59.33,1.3c3.17,1.88,6.83.94,10.3.68.08-2,.16-4.07.23-6.08a58.79,58.79,0,0,0-10.53,5.4M389.65,55.83a38.51,38.51,0,0,0,.08,17.61c6.41-3.14,13.32-6.07,17.51-12.17-3-5.86-12.36-11.33-17.59-5.44m-10.26-9.16c3.14-7.93,13.42-7.77,20-4.68C410.34,45.91,419,56.9,416.87,68.9c-4.88,8.26-13.65,12.56-22.14,16.17,5.84,5.72,13.13,11.06,21.66,11,5.64-.66,8.15-6.3,11-10.41,2.5.53,5,1.17,7.44,1.9a34.82,34.82,0,0,1,3.49-8c11-3.42,20.9,6.15,25.61,15.19L468,93l1.42,4.79a7.57,7.57,0,0,0,3.09-6.64c-4-4.56-4.25-10.7-2.88-16.32,2.56-1.74,5.09-3.9,8.38-4,5.37-1.37,10.4,5,8.3,10-.36,2.81-4,3.31-5.75,5,3.29,3.39,7.42.81,10.65-1.24,5.47-3,5.19-11.23,11.24-13.49,4.23-2.3,9.16-1.46,13.77-1.49,1.6,1.8,3.26,3.59,5,5.32-.55,3.72-1.44,7.61-5.51,8.91,3.26,6.22,5.19,13.52,1.55,20-4.73,2.83-10,7.09-15.52,3.44l-3.37-2c-2.36-3.29-4.56-6.8-3.82-11a13.8,13.8,0,0,0-3.87,7.37l-3.19,5.36c-8.66,3.59-21.82,3.8-25.43-6.84-3.7,2.61-7.55,5-11.42,7.31-7.24,2.17-14.55-.36-20.18-5l-3.17,2.93c-3.92,2.12-8.27,4.94-12.89,3.32a68.09,68.09,0,0,1-23.92-12.42c-1.65,3.19-3.59,6.56-7.52,7-2-2.91-4.46-5.59-5.93-8.85-.73-9.46.46-18.91,1.69-28.25-.51-6.59-6.23-14.39.72-19.56m-45.17,7.54c-.93-4.73-1.69-9.67-.21-14.38l6.46-.08c1.32,2.45,2.61,4.93,3.9,7.39A73.94,73.94,0,0,1,339,56.26c-1.58-.7-3.17-1.38-4.74-2m248.17.86c-1.11,11.52-1.87,23.33.66,34.72,10.7-8.89,18.73-22.14,19.06-36.32a183.26,183.26,0,0,0-19.72,1.6m-8.34-31.86c-.13-4.1,3.7-5.84,7-7,2.76,2.22,5.51,4.45,8.13,6.79-1.24,6.36-3.37,12.51-4.33,18.93,6.78-.41,13.56-.43,20.35-.38,1.59-3.57,3.11-7.19,4.61-10.81a99.49,99.49,0,0,1,2-11,96.62,96.62,0,0,1,9.77.31c1.09,2.84,2.13,5.69,3.21,8.53-1.42,3.7-2.79,7.41-3.89,11.22,14.13.64,28.15-2.25,42.3-1.57,8.32.5,16.43-1.83,24.75-1.7,9.9,0,19.72-1.7,29.62-1.65,8.4,0,16.61-1.85,24.85-3.19,6.46-1,14.43,7.14,9.67,13.23-3.17,5.45-9.92.78-14.61.88-28.77.56-57.4,3.85-86.18,4.3-11.24,2.38-23-.21-34,3-1.74,6.58-4.81,12.91-5.19,19.79a46,46,0,0,0,4.74,15.18l4.17-.31c1.84-1.27,3.7-2.51,5.57-3.75,1.32-7.64,1.17-15.62,4.12-22.9a55.54,55.54,0,0,1,11.14,2.08,39.75,39.75,0,0,1,1.51,11c-4.43,4-5.47,10.83-1.59,15.57C658.84,90.87,672.89,79.3,684,67.63c2.25.68,6.15.07,5.54,3.59-2.61,15.51-18,24.07-31.48,29.14-8.28,1.5-18,1.92-24.47-4.48-3.75,2.35-7.16,6.08-11.74,6.55-5.75-1.27-11.6-4.48-14.58-9.77-1.35-1.72-2.05-4.15-4.07-5.24-5,5-8.76,11.24-14.45,15.51-3.6,3-8.12.13-11.09-2.33-6.1-5.65-6.93-14.6-7.32-22.42-.89,1.82-1.75,3.65-2.61,5.49C564.87,94,556.57,102,546.92,106c-10,3.08-20.86-5-22.68-14.91.64-9.24,7.12-18.38,16.71-19.79,6.8,0,10.9,6.73,10,13-4.1,3.37-8.84,6.17-11.75,10.73,10.12-2.5,15.85-12.63,20.32-21.31a171.7,171.7,0,0,0,7-19c-14.51-.45-28.93,2-43.46,1.39-2.83-1.06-4.93-3.46-7.32-5.22-.08-3.14-.08-6.3,0-9.46,3.11-1.17,6.4-2.05,9.59-.6.7.35,2.07,1,2.76,1.36,14,2.2,28.25.35,42.35,1,3.13-6.25,3.66-13.14,3.68-20M637.68,9.82c6.4-.88,13.62,3.46,13.9,10.32.69,3.89-3.26,6-5.59,8.27-1.85,0-3.7-.07-5.54-.08a17.12,17.12,0,0,1-5.69-13.9c.73-1.17,2.19-3.45,2.92-4.61m-401,74.77c2.12.55,4.25,1.06,6.38,1.57-.17-1.31-.51-3.9-.68-5.19q-2.88,1.75-5.7,3.62m109.24-3.14c-4,2.7-.1,6.68,1.19,9.75a17,17,0,0,0,11.16-8.53c-3.79-2.21-8.57-5.17-12.35-1.22M71.74,35.56c1.31,5.7,2.55,12.43,8,15.69,4.32,2.38,10.23,5.44,14.8,2,3.37-2.89,1.7-8.22-1.07-10.91-5.43-6.09-14.27-6.1-21.76-6.78m119.7,21.51c4.36-8.27,4.41-18,3.42-27.1-3,8.68-3.42,18-3.42,27.1M188,8.15c.51-2.56,2.58-4.26,4.18-6.17,2.6,1.67,5.77,2.79,7.55,5.42,5.8,17,7.41,35.69,2.74,53.17-2.32,7.41-6,14.28-8.63,21.56,11.18-7,14.12-21.24,16.86-33.25,1.29-4.76,6.22-1,9.36-.61,1.16,3.51,2.26,7.23.58,10.76a81.47,81.47,0,0,0-3.54,23.87c3-.63,5.93-1.29,8.91-1.9,3.92-6.56,9.47-13,17.26-14.75,4.45.1,8.45,2.51,12.61,3.8,2.46,1.14,5.64,1.72,7,4.33,3,4.12-.25,9.13.3,13.7C271,85.81,274.52,77,272.85,69.45c1.79-1.11,3.45-3.92,5.87-2.84,5.17,2.63,9.87,6.22,15.57,7.69,1.75,2.56,3.49,5.14,5.09,7.8a64.46,64.46,0,0,0-1.85,7.52c5.5-.88,9.19-5.6,13.26-9,.43-1.79.88-3.57,1.34-5.36q1-4.56,2.18-9l5.95,0c1.75,2.2,4.28,4,5.16,6.81.83,5.83-3,12,0,17.57,2.33-.55,4.68-1.06,7-1.52-2.51-4.66-3.17-10-.48-14.75,2.12.08,4.25.13,6.38.2q3.15-3.47,6.35-6.88C353,67,360.57,71.45,366,77.29c4.22,4.48,2.78,11.09,0,15.9-2.86,5.14-7.56,10-13.64,10.86-6.13,0-11.77-3.36-15.65-7.93-2.65,2.08-5.36,4.07-8.05,6-5.54-.46-9.67-4-13.59-7.52-6.2,3.94-12,8.61-18.89,11.34-5-1.49-9.44-4.32-11.87-9.09.35-4.17.83-8.3,1.26-12.45-5.92,6.63-11,16.43-20.93,17.19-5.65-.18-9.24-5.16-12.35-9.22-4,2.45-7.82,5.24-12.22,6.86-6,1.19-11-3.26-14.27-7.74-2.07,2.12-4.1,4.23-6.1,6.4-6.23.78-11.26-3.17-12.94-9-2.36,3.08-4.81,6.07-7.31,9a13.9,13.9,0,0,1-12.17-5.74c-3.8.94-6.1,4.26-8.81,6.79-4.31,4.31-9.29,7.85-13.87,11.84l0-.89C135.14,131.66,97.5,140,61.39,137.76a79.42,79.42,0,0,1-33.19-6.84C14.45,125.17,3.06,112.67.44,97.76c-1-9.8-.66-20.09,3.67-29.15,4.65-8.91,10.66-17.44,19.24-23l-.73-.25C36.27,35,52.33,27,69.6,25.43c10.08-.5,20.85,2.45,28.62,9,7.57,5.89,10.9,17.11,6.81,25.92-3.9,7.06-13.75,7.54-20.43,4.56-12-3.64-18.07-16.28-20.5-27.67-8.84.3-16.48,5.31-24,9.47-14.85,8.76-27.76,23.34-30,40.93-2.18,13.14,6.12,26.2,17.74,31.91,13.84,7.24,29.89,7.09,45.08,6.35,26.12.79,51.71-7.41,74.44-19.8A117.29,117.29,0,0,0,167.78,92l-.7-.94,2.73.12-1.21-1c5.9-3.42,9.24-9.49,13.52-14.53-1.09-11.34-2.78-22.76-.79-34.1A331.9,331.9,0,0,1,188,8.15" transform="translate(0.02 -1.98)"/></g></svg>