<svg id="Layer_1" data-name="Layer 1" xmlns="http://www.w3.org/2000/svg" xmlns:xlink="http://www.w3.org/1999/xlink" viewBox="0 0 742.1 181.77"><defs><style>.cls-1{clip-path:url(#clip-path);}.cls-2{fill:#fff;fill-rule:evenodd;opacity:1;isolation:isolate;}</style><clipPath id="clip-path" transform="translate(-0.26 -3.2)"/></defs><g class="cls-1"><g class="cls-1"><path class="cls-2" d="M408.29,60.61c2.76-2.39,6.46-4.38,10.21-3.59.32,2.39-2.38,3.58-3.67,5.22-3.11,2.61-5.33,6.57-9.39,7.8-.08,2.2,1.21,6.14.85,8.33-.84,1.68-3.68.51-5.29,1.12,0-.49-2.18-6-2.18-6.42-2.5,0-3.78,4.44-5.41,6.1l-2.19-.07a36.11,36.11,0,0,0-4.14-2c-1.81,8.39-5.08,7-6.62,7-.46-2-1.88-3.78-1.93-5.91-.27-1.21.11-2.71-1-3.61-3.49-2.21-12.78,3.43-13.31,3.88-2.39.55-4.8,3.39-7.26,3.46L355.57,80c-.62-1.59-1.35-3.13-1.86-4.76.93-3,4-4.81,6.84-5.8,6.18-2.21,22.26-10.08,24.83-10.14,1.14,1.08,2.78,1.9,3.28,3.51.25,2.27,0,4.55,0,6.83,1.48,8.2,6.79-1.24,7.77-3.2a12.71,12.71,0,0,1-3-7.07c1.62-.89,3.54-2,5.42-1.12,1.58,1.16,2.19,6.19,3.24,7.79,2.13-.11,4.29-4.39,6.12-5.39m-59.22-13c1.51.16,5.61,2.36,6,2.34,0,2.16,0,4.32,0,6.48l3.44,0A22.84,22.84,0,0,1,361.86,60a13.41,13.41,0,0,1-1,6.27,130.36,130.36,0,0,1-11.29,7.32c-1.37.74-8.16,6.7-10.82,8.2A18.92,18.92,0,0,0,334.44,85c-2.25,2.42-5.3,3.87-7.63,6.2A10.54,10.54,0,0,1,324.1,87c3-2.7,14.23-12.42,16.58-15,3.32-3.62,7.41-6.45,10.4-10.38.84-1,2-2.68,0-3.18-2.8,0-4.61,2.43-6.5,4.13-2.83,1.21-4.87,3.57-7.32,5.35a89.77,89.77,0,0,0-10.86,9.67c-.49.06-34.11,27-34.61,27.8-3.22,1.67-5.69,4.43-8.54,6.63l-1.7.22c.14-1.91-3.75-.27,1.17-5.62,1.52-2.45,16.58-15.44,21.63-20.54,2-2.17,23.44-19.8,24.21-20.51a76.47,76.47,0,0,1,12.54-9.91c3.15-2.21,5.12-5.58,8-8.06m199.77-.69c4.71.61,8.49-3.15,13.16-2.73.56.57,1.12,1.13,1.69,1.69.2,1.44.86,2.89.54,4.35-1.66,2.75-4.16,5.7-7.74,5.27,0,2.68,0,5.36,0,8-2.28,5.4-4.84,7.36-11.41,9.41a39.59,39.59,0,0,1-6.06.24c-3.47-.52-5-5.24-2.58-10.36,3-3.15,7.45-2.66,11.41-3.27,0-.57,1.06-.06,1.06-.64,1.17-.37-2-9.09-.07-12M463.26,38.1c-2.17-3.54-15.4,8.73-14.11,13.76,3.83.06,6.16-3.31,8.51-5.82,1.67-2.27,4.25-3.9,5.11-6.7m0-8.29a29.4,29.4,0,0,0,10.72-2.14,9.33,9.33,0,0,0,3,2,27.41,27.41,0,0,1-.88,8.16l-1.5.49c-4,4.36-8.41,8.4-12.13,13a7.29,7.29,0,0,0-1.76,3.71,8.85,8.85,0,0,1,8.05,2.55c-.58.77-1.14,1.54-1.7,2.33,6.92-4.83,19.69-15.24,36.64-10.7,1.91,1.74,1.37,5-.29,6.9-1.92,2.43-4.5,4.63-4.85,7.92a51.18,51.18,0,0,1,6.14-1.89c3.09-.44,5.56-2.54,8.45-3.55.17-2.28-.84-4.39-1.05-6.64.57-4.14,2.73-5.32,4.46-5.74,1.89-.47,4.39-.36,5.56,1.46a40.77,40.77,0,0,1,1.92,4.13l2.14-.16c2.18-1.55,10.66-7.37,15.05-6.47,1.1,1.86.3,3.62-.9,5-1.43,1.92-3.79,2.66-5.71,4-3.6,2.56-7,2.53-10.56,6.45.92,3,1.49,8.49.46,11.48a7,7,0,0,1-4.39,1.29c-1.29-1.86-2.3-5.44-3.51-7.35a76.67,76.67,0,0,0-10.59,5c-2,1.39-7.2-5.63-7.12-7.12-.46,1.08-4.52,3.14-2.55,12.57-1.18,1.77-4.09,1.47-5,1.43-.65-.66-1.29-1.3-1.92-2-1.57-2.22-1.37-7.14-1.37-10.67-.83.06-2.56,1.54-3.39,1.6-6.82,3.51-15.47,8.42-21.77,5.39-1.69-2.7-2.38-5.92-.58-8.79a33.08,33.08,0,0,0-7.43.71c-2.35.55-5.05-.1-7.14,1.37-5.26,4-9,9.68-14.56,13.25-7.33,6.78-14.4,13.85-21.55,20.83-5.4,6.5-19.09,19.84-19.51,19.84a53.76,53.76,0,0,0-7,8C372.89,140.51,363,155.1,360,171.72c0,2.82,1.74,6,4.52,6.91a15.53,15.53,0,0,0,6.71-1.78c9.34-5.52,16.7-13.71,23.25-22.25,1.63-2.41,13.27-16.82,17.4-21.8,1.72-1.89,8.68-12.74,8.29-13,2.67-2.91,8.65-13.94,10.23-14.91,2.21-3.26,7.79-13.55,7.76-14.14.42-.22,3.32-8.21,3.25-10-.41-1-.8-2-1.18-3h3c1,1.38,2.68,2.6,2.82,4.42a30.61,30.61,0,0,1-3.69,10.82c-.95,1.65-2.1,5.36-2.4,5.34-4.15,9.16-10.09,17.38-15.45,25.86-2,3.94-5.1,7.08-7.16,11-2.52,3.14-21,29.25-24.59,32.12-5.17,4.45-8.94,10.38-14.67,14.19-5,3.15-11.39,4.85-17,2.35a23.24,23.24,0,0,1-7.25-8.87c-.62-3.13-1.34-6.43-.43-9.58.7-4.54,7.82-17.83,9.33-20.48,1.75-3.17,3.91-6.1,5.88-9.12,2.17-3.32,19.13-21.8,24.72-27.27,1.81-2.39,4.54-3.79,6.59-5.94,2.32-2.35,6.89-6.88,6.88-6.66,2.86-3,12.4-11.76,14.14-13.56,3.7-3.76,8-7.18,11.6-11,.84-1,2.1-2,1.86-3.5-.95-1.65-2.71-2.65-4.13-3.84a8.94,8.94,0,0,1-.18-5.71c3.16.21,6.14,1.6,9.34,1.31a11.05,11.05,0,0,0,9.83-5.88l-2.9-.06c-.19-2.77-.62-14.2-.16-17.25,4.5-4.06,11-3.62,16.46-5.32M268.64,71.91c-5,2.5-10.41,4.55-14.69,8.28,6-.24,11.9-2,17.77-3.33,6.38-2.08,13.06-3.28,19.09-6.34,1.35-1.4,7.83-3.16,7.44-6.31-7.07-1.36-22.66,4.52-29.61,7.7M256.8,11.38c.35.21,18.73.64,27.75.71,2.47,0,45.92,1.65,51.11,18.2,1.88,4.91,3.65,8.6,1.38,15.58-.78,1.43-3.93,7.89-5.36,9.09-3.82,3.48-7.06,7.75-11.65,10.25-1.22.41-3.85,2.88-4.78,3.13-4.11,2.29-8.13,4.83-12.58,6.42-.17.31-7.45,3.09-9,4.4-.89.1-15.25,5.5-21.19,6.36-4.56.11-8.91,1.81-13.5,1.76-4.07-.25-15.92,2.69-18.81-.74-2-.11-2.81-2.07-1.53-5,3.33-4.07,8.33-6.06,12.65-8.83,3.35-2,10.72-4.63,10.67-4.93,5.64-2.52,12.72-4.26,13.24-4.72,1.62-.12,9.49-4.86,30.32-6.71,5.88.47,4.9,3.61,5.26,4.86,2-1,4.19-1.44,6.09-2.57,2.91-2.16,4.93-5.27,7.68-7.62,5.74-4.72,7.76-13.63,5.13-20.73-5.8-6.38-23.47-9.47-24.15-9.94-4.48-.62-21.14-2.46-24.95-1.9-59.54-6-169.92,24.84-170.33,25.2-1.41,0-39.09,9.82-64.3,26.9C41.83,72,29.34,81,29.23,81.41c-1.75,1.6-13,12.2-15.89,16.74-.07.8-7.84,10.12-1.31,18.14C13.74,118,24.6,131,53.87,133c12.78,1.81,38.31-1.14,43.31-2.61,7.18-1.08,12.09-1.08,12.41-5.84,2.27-1.36,12.46,2.21,4.83,9.17-2.75,2.38-14.43,4.44-16.54,4.63-1.26.62-28.41,3-32.2,2.1-34-.33-69.55-7.21-65-36.67.55,0,2.56-5.7,6.51-11.4C26,69,53.87,57.37,68,50.89,110.25,31.22,191.77,14.33,256.8,11.38Zm332.26,30.3a60.14,60.14,0,0,0-12.41,16.39c1.14,2.62,4.09.85,6-.15,8.28-2.53,12.16-4.05,14.38-6.77,3.09-3.81,7.25-6.46,10.67-9.94,2.07-2.17,4.25-3.89,7.94-2.42,4,2.06,3.78,3.25,3.37,5.82.22,2-1.1,3.71-1.83,5.5,5.32-2.16,9.43-6.35,14.08-9.63.85-2.7,1.92-6.74,5.53-6.47a53.22,53.22,0,0,0,14.09.81c1.67,1.48,3.77,2.77,4.51,5s0,4.62-.48,6.84c-4.1,2-11.66,1.05-14.68,4.8-9.23,5.5-5.7,17.88-2,19.65,3,1.49,13.16,5.1,37.84.38,5.61-.3,31.2-9.43,36.67-12.7a94.13,94.13,0,0,0,13.53-8c3.26-2.12,6.26-4.2,6.65-8.52,1.77-4.91-6.29-8.64-26.09-11.79-3.53-1.34-37-6.08-46.86-6.86-6.61-.4-11.52-1.19-19.17-1.58-9.08-.25-18.14-1.32-27.25-.77a10.41,10.41,0,0,0-4.85,1.34,10.89,10.89,0,0,0-4.26,4.93Zm30-38.28c6.62-1.45,4.1,5.48,3.67,5.42.67,1-4.84,6.51-4.12,7.46,7,.17,17.17-.38,24.15.59,29.09-.2,54.82,4.91,61.2,6,.91-.2,18,3.84,29.2,8.11,7.84,3,11.18,9.09,7.93,14.51-1.66,7.55-14.2,15.45-17.48,17-5.2,3.47-22.95,10.32-23.86,10.94A223.19,223.19,0,0,1,676.89,80a130,130,0,0,1-33.67.17c-11.41-2.21-17.5-5-20.06-13.52a24.55,24.55,0,0,1,.07-5.07,30,30,0,0,1,2.49-4c-2.73.78-5.7,1.26-7.86,3.25-2.69,2.38-6.18,3.46-9.53,4.54-.55.4-1.09.8-1.62,1.21-2.41,2-5,2.39-8.67,1.19-1.79-.57-1.79-2.73-2-4.15a10.32,10.32,0,0,0-3.6.22c-3.63,1.27-18.21,6.86-22,5.81-1.3-.38-8.34-1.07-4.87-11.33,6.35-16.46,33.82-37.42,34.24-38.46-7.23.43-14.82-.54-22-.26-8.12,0-38.26.46-46.62,1.42-9.73,1-39,3.78-43.77,5.21.14-3.29,14.06-6.77,18.12-7-.08.3.52,0,.81-.4,7.07-1.49,29.74-3.15,33.91-3.31,6.15.28,12.2-1.32,18.36-.69,14.91-.48,29.84-.15,44.76-.07,1.51,0,3.19.1,4.49-.83,4.27-2.93,7.3-7.26,11.29-10.51" transform="translate(-0.26 -3.2)"/></g></g></svg>