<svg id="Layer_1" data-name="Layer 1" xmlns="http://www.w3.org/2000/svg" viewBox="0 0 1150.3 628.7"><defs><style>.cls-1{fill:#fff;}</style></defs><title>ulaLipovitz_sign2</title><path class="cls-1" d="M1049.37,273.65c5.49.77,11,1.7,16,4.37-.85,5.17-2.23,10.24-3,15.42-.77,3.81-.73,7.8-2.23,11.43-1.44-1.76-3.6-3.28-3.8-5.71-1.24-8.76-4.32-17.09-6.89-25.51"/><path class="cls-1" d="M449.2,337.24c3.79-.94,9.56-1.22,11.37,3.12a14.77,14.77,0,0,1-.51,9.66c-2.15,3.08-6.41,4.42-10,3.72s-5.75-4.33-6.41-7.69c.14-3.6,2.05-7.47,5.58-8.81m335.3-79.33c-.24-3.53,3.38-5.74,6.51-6,3.41-.41,7.73.2,9.62,3.46,1,4.32,1.4,8.78,2.16,13.16,1.24,9.58,5.12,18.52,8.19,27.61,6.3,16.76,13,33.69,23.76,48.17,3.75,4.71,8.21,9.79,14.48,10.8a20.32,20.32,0,0,0,.3-5,125.31,125.31,0,0,0-8.59-32,47.19,47.19,0,0,0-4.78-8.26c-8.87-13.66-17.64-27.46-24.47-42.27-1.3-2.63,1-5.28,3.38-6.13,3.54-1.75,8.87-2.85,11.31,1.2,8.86,13.75,17.51,27.71,24.62,42.47,4.32,8.82,10.91,16.19,17,23.82a92.73,92.73,0,0,0,11,11.94c-4.12-12.83-8.63-25.56-13.81-38a190.58,190.58,0,0,1-19.87-36c-1.2-3.23-4.47-7-1.74-10.29,3.48-3.51,9.77-5.31,14-2,4.3,11.21,11.7,20.91,15.86,32.19a51,51,0,0,0,16.91,21.54c.81-8.73-.19-17.49.14-26.24.12-5.6-.68-11.57,1.79-16.81,3.9-3.82,12.4-5.74,15.31.16,6.18,18.69,14.71,36.51,24.15,53.76,4.67,8.08,8.55,16.75,14.5,24,2.52.44,5.59.09,7.33,2.45,2.59,2.18,1.24,6-.62,8.16-2.61,2.8-6.9,2.62-10.36,2-6.63-1.58-11.12-7.25-14.59-12.71q-12-20-22.23-41c.23,5.15.32,10.66-2,15.4-3.06,5.16-9.75,6.25-15.21,5.16,3,8.25,5.82,16.61,7.35,25.27,1.41,6-5.17,11-10.69,10.73-8.57-.44-15.77-6.22-21-12.6.4,5.1.29,10.81-3.18,14.94-4.68,5.6-12.93,6.9-19.67,4.91-7.37-2.05-13-7.73-17.55-13.57-9.73-12.62-16-27.42-22.3-41.9-3.51-9-7-18-9.76-27.27-2.7-8.31-6.13-16.48-7.13-25.22M583.44,194.53c5.44-2.78,11.84,2.42,11.19,8.05a22.44,22.44,0,0,1-7.55,7.76c-2.94-.07-4.83-3-6.87-4.79-1.63-2.16-4.45-4.57-3.45-7.54a23.12,23.12,0,0,1,6.68-3.48m290-5.77c5.73-3.16,11.93,0,17,2.86.93.82.73,2.23,1,3.34.81,8.56,3.83,16.68,6,24.95,1.17,3.84,3.84,7.72,2.37,11.88-.87,3.62-5.59,4.4-8.62,3.3-3.09-1.27-3.79-4.83-5-7.56-4.72-10.33-9.88-20.51-13.38-31.33-.62-2.38-1.7-5.64.6-7.44m-213,117.42a138.09,138.09,0,0,0,2.32,29.27c.1,5.44,2.42,10.41,3.5,15.67a205,205,0,0,0,17.55,45c3.49,7.89,8.28,15.07,12.38,22.64,9.58,14.47,18.6,29.49,30.4,42.31-2.31-7.6-4.48-15.24-6.84-22.82-3.19-9.12-6.49-18.2-9.41-27.41-12.81-36.58-30.75-71.09-49.9-104.7m-117.8-19.29C538.4,297,536.05,308.1,537.52,319c1.36,8.8,5.28,17,10.15,24.39s10.78,14.44,18.51,19c1.45-6.77.29-13.68.32-20.52,0-3.43-1.84-6.54-1.79-10,.07-5.38-3.22-10-3.38-15.38-2.84-13.21-7.89-25.82-11.93-38.69-3.1,2.23-5.14,5.63-6.74,9m178.65-17.6c-2,2-1.65,5.13-1.68,7.73,8,8.62,12.15,19.82,17.21,30.25,5.66,12,11.92,24.15,22.1,32.93,1.77,1.32,4.63,3.17,6.65,1.43,4-8,2.38-17.24,1.71-25.77-.87-11.81-3.9-24.09-11.89-33.19-6.51-7.43-16.13-10.9-25.3-13.75-2.82-.9-6.29-1.61-8.8.37M511,173.13c3.8-3.06,9.74-5.42,14.24-2.39,3.73,4.6,3.73,10.79,4.84,16.32,8.27,25.29,18.11,50,27.79,74.81,11.83.23,21.61,8.43,29.53,16.45-1.77-6-1.77-12.46-4.14-18.34.87-3.64,5.38-5.1,8.67-6,3.92-1.4,7.51,1.72,8.89,5.17,10.69,23.4,21.81,46.79,36.54,68-2-11.25-4.8-22.64-3.52-34.13-.13-3.17,4.2-5.63,6.67-3.57,2.75,3.7,4.07,8.25,5.19,12.67,1-5.93,1.82-12,1.09-18-3.11-6.23-8.69-10.74-12.39-16.57-1.09-1.39-.19-3.14.69-4.35,2.47-3.35,7.61-4.88,11.25-2.54,2.09,1.68,3.47,4,5.16,6.1,2.12-5.69,4.94-11.66,10.36-14.89,5.74-3.87,14-4.71,19.69-.38,9.11,6.12,14.51,16,19.34,25.55,1.9-1.13,3.85-2.19,5.83-3.18.54-4.06,1.42-8.5,4.69-11.29a25.75,25.75,0,0,1,23-4.13c13.26,3.78,27.17,9,35.63,20.54,5.85,7.57,8.2,17.09,10.62,26.17,1,12.59,4.23,26.06-1.28,38.07-2.22,6-8.11,10.1-14.34,10.83a23.9,23.9,0,0,1-17.75-5.16c-10.44-8.77-17.38-20.92-22.75-33.27-3.15-6.55-6.25-13.12-9.42-19.65-1.32-3-4.25-4.82-5.77-7.71-.86,2.34-2,4.9-.78,7.35,5.71,15.48,7.79,32.05,8.08,48.46-.5,8.75-15.75,8.12-16.71-.11-.82-3.1-2.28-6-3.27-9C693,324,692.15,312.41,692.34,301c0-3.55.7-7.28-1-10.58-5-10.56-9.49-22.21-19.2-29.37-5,5.48-7.25,12.79-8.89,19.88a4.56,4.56,0,0,0,.46,3.6c18.15,29.86,35,60.6,49.14,92.59,2.54,6.83,5.64,13.45,7.78,20.43,7.47,20.76,14.74,41.62,20.78,62.86,1.77,6.13,4.4,12.6,2.86,19.06-1.35,5.2-8,8.2-12.38,4.65-11.78-10.91-23.23-22.38-32.35-35.67-10.92-15.73-21.21-32-29.6-49.22-3.42-10.54-8.9-20.33-11.6-31.11-1.17-4.19-2.85-8.21-4.12-12.36C648.65,361,639.76,358,636,352.09a494.59,494.59,0,0,1-29.41-47.78c-1.42,3.71-5.9,5.23-9.51,4.14-2.72-.73-6.08-1.16-7.53-3.9A106.35,106.35,0,0,0,574.7,284,39.11,39.11,0,0,0,562.89,275c6.46,19.42,12.53,39.06,16.39,59.19,2,10.85,3.53,22.27.3,33-1,3.23-3.12,6.55-6.56,7.44a21.51,21.51,0,0,1-15.38-3.25c-11-6.08-18-17-24.64-27.32-4.58-8.83-9.43-18-10.22-28.08-.93-8.61.79-17.2,2.8-25.53,2.84-10.46,9.08-20.62,19-25.63-3.48-10.1-8.07-19.79-11.27-30-3.09-7.13-5.14-14.65-8.21-21.79-3.81-10-6.79-20.25-10.87-30.11-1.18-3.14-4.24-6.33-3.2-9.8M429.51,401c2.06,7,3.95,14,6.14,20.94,8.05,23.68,19.68,46.37,36,65.44,6.33,7.65,14.21,13.76,21.25,20.7a255.18,255.18,0,0,0,22.25,14.76c-5-9.9-11.85-18.74-18.39-27.65-12.59-16.14-25.12-32.35-36.47-49.4C450,430.89,440.46,415.4,429.51,401M319.17,171.09c3.09-6.89,11.81-11.39,19-8.24,7.45,5.47,11.4,14.41,13.67,23.13,2.06,8,2.71,16.74-.14,24.63-1.34,3.42-6.71,4.66-8.49,1-3.47-4.83-.46-10.92-2.57-16.11-1.74-5-.76-10.66-3.6-15.25-1.39-2.21-2.52-4.68-4.57-6.37-3.72,5.21-5.4,11.49-6.81,17.64-7.52,36.9-4.75,76.37,10.67,111,5.87,12,13.7,23.84,25.51,30.7,4.15,2.45,9.06,4.88,14,3.54,2.58-3.2,2.59-7.72,2.22-11.62-1.57-12.39-4.16-24.87-9.82-36.09-3.66-6.74-5.67-14.2-9.13-21-.9-1.86-1.83-4.33-.38-6.15a15.87,15.87,0,0,1,8.27-4.27c3.38-.07,5.63,2.92,6.82,5.73,3.79,8.89,7.69,17.74,10.78,26.91,4.14,11.31,9.57,22.1,15.14,32.77-2-9.34-4.91-18.49-6.34-27.93,0-1.93,2.18-2.34,3.52-3.1,2.53-1.2,5.7-2.74,8.34-.9,1.84.92,2,3.13,2.48,4.92,2.31,11.59,6.19,22.83,8,34.54q2,10.79,3.68,21.65c.51,3.37,1.07,6.81,2.72,9.85,8.69,15,18.21,29.59,28.07,43.88,11.91,18,23.79,36,36.32,53.63,12.72,16.76,26.15,33.06,37,51.15,3.11,5.42,6.6,10.92,7.39,17.26.84,5.45-4.12,11.28-9.79,10.47-7.38-.83-13.79-5-20.13-8.5-8.08-5-16-10.39-22.72-17.09C471.71,506,464,500.3,458.71,492.42a216,216,0,0,1-30.88-53.31,336.15,336.15,0,0,1-12.45-39.69c-2.47-10.73-4.5-21.56-7-32.28-.49-2.65-2-4.92-3.48-7.11a209.23,209.23,0,0,1-13.43-22.56c-3.61,8-13,12.37-21.54,11.13a39.1,39.1,0,0,1-17-6.54A70.67,70.67,0,0,1,331,319c-3.14-5.9-6.79-11.56-9-17.91-2.69-8-6.51-15.61-7.86-24a313.48,313.48,0,0,1-4.84-48c.4-10.36,1.72-20.66,2.67-31a75.74,75.74,0,0,1,7.16-27m602-23.15c3.26-1.87,8.41-2.33,10.75,1.18,2.15,2.71.69,6.3,1.37,9.41,1.76,9.12,4.93,17.89,7.91,26.67,6.86,1.41,13.76,2.9,20.77,3.27,4.5-.49,9.28-2.18,13.65-.07a11.85,11.85,0,0,1,3.63,4.6c-1,4.95-4.82,10.28-10.3,10.49-7.45-1.93-15.17-2.31-22.67-4,2.74,10.21,7.2,19.87,10,30.05,1,7.84,3.65,15.31,6.6,22.61a616.06,616.06,0,0,0,30.25,67.69,125,125,0,0,0,10.65,17.45c4-4.49,12.5-1.29,12.61,4.76,0,3.83-1.11,9.26-5.5,10.23-5.44,2.84-12.42,1.7-17.3-1.75-6.16-6.69-9.64-15.28-14-23.14-4.16-7.16-7.1-14.92-10.71-22.36C962.78,291.59,957,278,951.76,264.14c-3-7.5-4.92-15.36-8-22.84-5.42-14.93-10.37-30-15.13-45.18-12-3-24.33-4.74-36.56-6.71a8.51,8.51,0,0,1-6.89-7.39c-.35-1.32.75-2.44,1.87-2.91a20.52,20.52,0,0,1,11.92-2c8.5,1.11,16.88,3,25.31,4.57-1.73-6.36-3.26-12.77-5.05-19.11-.72-3-3.35-5.38-3-8.57-.37-3.07,2.76-4.61,4.89-6M127.08,188.05c5.34,27.16,12.9,54,24.85,79.1-2-8.42-4.61-16.69-6.08-25.22-1.21-8.8-4-17.28-5.82-26-4.67-15.8-8.21-32-15.17-47.06.15,6.42,1.26,12.78,2.22,19.13m-11.46-38.39c2.51-3.63,7.55-3.72,11.43-2.77,2.56,2.2,4.06,5.35,5.6,8.3,4.36,9.74,8.77,19.5,11.81,29.75,6.31,21.36,12.57,42.76,17.24,64.55,1.41,6.63,2.92,13.27,5.77,19.45-.47,2.23-.33,5.27-2.54,6.59a15.6,15.6,0,0,1-9.76-2c4.64,8.74,9.22,17.52,14.4,26,8,12.89,15.07,26.48,25.12,37.95a29.23,29.23,0,0,0,9.48,7.24c.73-2.19,1.42-4.38,2.1-6.58l1.93-1.5c-6.87-12.72-11.09-26.65-15.39-40.4-3.15-14.13-5.89-28.89-2.95-43.3,1.3-6.84,8.68-13,15.75-10.35,6.07,3.31,10.09,9.8,11.43,16.47-.49,2.34-2.95,3.8-4.91,4.92-3-.06-5.77-1.14-8.5-2.19-.39,8.54,1.31,17,2.58,25.36,3.18,15.27,7.57,30.56,15.63,44,3.42,5.61,7.32,11.06,12.39,15.32-.56-6.35-2.69-12.38-4.37-18.48-4.59-17.61-11.45-34.52-19-51.06-1.48-2.3,1-4.08,2.62-5.25,2.48-1.67,5.4-3.62,8.53-2.81,2.48.61,4.13,2.78,5.05,5,13.07,30.32,30.33,59,52.33,83.68A42.17,42.17,0,0,0,291,367.2c2.92.73,6.35-.06,8.88,2,1.61,2,.12,4.71-.59,6.8-2.89,3.76-8.1,5.83-12.72,4.34-7.46-2.27-13.56-7.52-18.69-13.22-6.58-7.54-12.35-15.74-18.73-23.45.62,4.54-.17,9.54-3.51,12.91-2.83,3.33-7.6,3.47-11.62,3.3-7.36-.48-12.86-6.16-17.49-11.33-.66,3.64-3.07,7.13-6.82,8-8.33,2-16.67-2-22.94-7.28a76.65,76.65,0,0,1-11.41-14.63c-2-3.34-4.83-6.12-6.64-9.59-12.84-23.61-27.61-46.36-37.17-71.6-7.93-18.64-12.14-38.58-16.15-58.35-1-4-.51-8.27-1.77-12.25-1.83-5.81-.9-11.89-1-17.85.11-5.21.5-10.69,3-15.37M61.3,133.3c4.24-2.91,11.59-4.44,14.77.7,7.77,20.51,13.58,41.71,18.92,63a166.61,166.61,0,0,0,9.08,30c9.81,22.38,19.08,45.14,32.11,65.91,7.64,11.4,13.47,24,22.15,34.69,3.22,3.65,8.1,7.05,7.68,12.54.23,2.94-3,3.87-5.19,4.73a7.49,7.49,0,0,1-7.84-1.7c-9.38-7.37-14.64-18.34-20.91-28.18-2.56-3.92-4.59-8.14-7.06-12.1,4,14.61,10.12,28.58,14.15,43.2,2.62,6.35-2.21,14.79-9.21,15.26-7,1.06-13.38-3.21-18.91-7-16.88-13.2-26.7-32.86-35.38-51.95C63.08,277,55.06,249.66,46.15,222.82c-7.92-24.28-14.58-49.67-29.61-70.75l-.89.19C10.82,170.39,14,189.8,21.07,206.9c2.7,6,4.73,12.63,9.46,17.48,1.29,1,1.69,3.23.14,4.2-2.43,1.54-5.46,4.26-8.3,2-7.66-4-9.73-13-13.07-20.2C1,193-1.42,173.18.76,154.15c.83-5.14,2-10.69,5.72-14.57,5.38-3.67,13.57-3.2,18.1,1.66,6.15,5.88,10.12,13.51,14.28,20.82C46,176,51.41,190.71,56.38,205.52c6.83,20.83,13.47,41.72,20.7,62.42,5,13.89,11.57,27.15,17.43,40.7,7.65,13.9,15.42,28.82,29.29,37.56-2-6.76-4.45-13.39-6.69-20.08-9.6-27.72-17.45-56-25.48-84.19-2.23-7.62-3.29-15.61-6.56-22.89-2.39-5.14-3.86-10.65-6.32-15.77A231.08,231.08,0,0,1,69.11,178a193,193,0,0,1-8.27-29.57c-.61-5-1.22-10.35.46-15.15M1068.58,342.2c-1.3,12.44-3.53,24.74-4.38,37.25-3.51,28.37-2.54,57-2.62,85.54-.5,5.73.92,11.36,1.49,17,2.7,22.45,4.93,45,10.16,67.06,3,10,6.42,20,11.32,29.36,3.48,5.88,6.29,12.2,10.27,17.78,5.26,6,10.22,12.42,16.73,17.12,5,2.94,10.66,5.54,16.56,4.9,4.28-.81,5.81-5.52,7-9.13a103,103,0,0,0,0-50c-6.22-25.17-10.35-50.78-16.06-76.06-4.74-19.26-9.3-38.59-15.47-57.46-2.71-8.55-4.86-17.31-8.5-25.54a347.88,347.88,0,0,0-26.53-57.84M1029,310.9c-2.24,12.37-.81,26,6.71,36.46,2.16,2.71,4,6.11,7.49,7.27,2.55-2.62,3.59-6.25,4.39-9.71a59.49,59.49,0,0,0-3.65-33.79c-1.66-3.93-5.41-7.31-9.85-7.25a9.49,9.49,0,0,0-5.09,7m20.42-37.25c2.57,8.42,5.65,16.75,6.89,25.51.2,2.43,2.36,3.95,3.8,5.71,1.5-3.63,1.46-7.62,2.23-11.43.81-5.18,2.19-10.25,3-15.42-4.95-2.67-10.47-3.6-16-4.37M1096.26,6.14a25.32,25.32,0,0,1,25.32-4.52c4.23,1.46,6.43,5.67,8.35,9.4a47.44,47.44,0,0,1,3.9,26.55c-1.26,10.52-2.39,21.06-4.1,31.51-1.68,5.46-1.91,11.21-3.3,16.74-5.27,22.06-10,44.25-16.49,66-1.32,4.85-1.9,9.89-3.52,14.67-2.62,7.64-4.18,15.57-6.16,23.39-5.74,19.66-10.17,39.68-14.82,59.62-2.47,10.44-4.06,21.06-6.51,31.49-1.71,3.75-1.13,7.92-2.12,11.85a224.06,224.06,0,0,0-4.48,27c3.53,5.94,8,11.28,11.31,17.34,3.5,7.43,8.22,14.24,11.28,21.88a406.94,406.94,0,0,1,21,53.9c3.63,8.45,4.85,17.62,7.86,26.27s4.17,17.52,6.6,26.2c2.16,7.7,3.14,15.67,5.23,23.39,1.74,6.14,2.19,12.53,3.67,18.73.91,4.78.59,9.71,1.68,14.47,2,9.66,3.8,19.38,6,29,.87,7.66,3,15.17,2.85,22.93a96.16,96.16,0,0,1-2.86,33.94A29.72,29.72,0,0,1,1129.91,628c-9.77,2.36-20-1.39-28.14-6.69-7.18-6.48-13.49-13.9-19.63-21.35-16.68-24.67-23.82-54.19-29.41-83-1.1-11.29-1.29-22.73-3.57-33.88a708.45,708.45,0,0,1,1.33-114.6c-5.19,2.75-11.78,1.14-16-2.68-11.22-9-17.4-22.95-19.83-36.87-1.51-10.27-1.69-22.27,5.79-30.42a20,20,0,0,1,19.26-7c-2-6.39-4.33-12.67-6.4-19-7.09-.22-14.26-.4-21.22,1.16-5.39,1.25-11.72-3.86-10.19-9.57a8.58,8.58,0,0,1,9.06-5.28,97,97,0,0,0,16.61.17A108.59,108.59,0,0,0,1017,242.13c-1.62-1.7-3.32-4.21-6-3.88-4.5.87-8.06,4.63-9.51,8.86-1.17,4.77.6,10.05-1.74,14.58-1.18,2.48-3.71,5.07-6.71,4.09a16.15,16.15,0,0,1-6.6-4.83c.57-8.11.16-17.19,5.47-23.93,5-7.49,14.09-12.28,23.16-11.56,5.45.42,9.83,4.25,13.27,8.19a103.35,103.35,0,0,1,15.08,26c8.11.89,16.15,2.38,24.25,3.4,2.83-7.77,3.35-16,5.37-24,2.54-11,5.5-21.93,8.08-32.93,2.6-10.51,6-20.77,8.83-31.22,6.56-22.9,11.57-46.2,17.81-69.17,3.68-9.53,4.67-19.72,7-29.58,1.07-5,2.23-10,3.35-15,1.89-15,5.65-30.83.26-45.58-1-4-5.34-7.1-9.44-5.84-4.67,2-8.42,5.64-11.88,9.28-7,7.93-13.57,16.27-18.37,25.71-4.18,7.89-7.31,16.33-12,23.92-1.94,2.63-6.69.75-6-2.62.9-5.16,3.62-9.76,5.79-14.48,3.23-6.26,5.74-12.86,8.91-19.14,6-9.4,12.14-19,20.78-26.29"/></svg>