<?xml version="1.0" encoding="utf-8"?>
<!-- Generator: Adobe Illustrator 24.0.2, SVG Export Plug-In . SVG Version: 6.00 Build 0)  -->
<svg version="1.1" id="Layer_1" xmlns="http://www.w3.org/2000/svg" xmlns:xlink="http://www.w3.org/1999/xlink" x="0px" y="0px"
	 viewBox="0 0 712.8 388" style="enable-background:new 0 0 712.8 388;" xml:space="preserve">
<style type="text/css">
	.st0{display:none;fill-rule:evenodd;clip-rule:evenodd;fill:#FFFFFF;}
	.st1{fill-rule:evenodd;clip-rule:evenodd;fill:#231F20;}
</style>
<path class="st0" d="M1107.3,333.6c5.5,0.8,11,1.7,16,4.4c-0.9,5.2-2.2,10.2-3,15.4c-0.8,3.8-0.7,7.8-2.2,11.4
	c-1.4-1.8-3.6-3.3-3.8-5.7C1113,350.4,1109.9,342.1,1107.3,333.6"/>
<path class="st1" d="M282.5,222.1c2.1-0.5,5.3-0.7,6.3,1.7c0.5,1.7,0.4,3.7-0.3,5.4c-1.2,1.7-3.6,2.5-5.6,2.1
	c-2-0.4-3.2-2.4-3.6-4.3C279.5,225,280.6,222.9,282.5,222.1 M468.4,178.1c-0.1-2,1.9-3.2,3.6-3.3c1.9-0.2,4.3,0.1,5.3,1.9
	c0.6,2.4,0.8,4.9,1.2,7.3c0.7,5.3,2.8,10.3,4.5,15.3c3.5,9.3,7.2,18.7,13.2,26.7c2.1,2.6,4.6,5.4,8,6c0.1-0.9,0.3-1.8,0.2-2.8
	c-0.7-6.1-2.4-12.1-4.8-17.8c-0.6-1.7-1.7-3.1-2.6-4.6c-4.9-7.6-9.8-15.2-13.6-23.4c-0.7-1.5,0.5-2.9,1.9-3.4c2-1,4.9-1.6,6.3,0.7
	c4.9,7.6,9.7,15.4,13.6,23.5c2.4,4.9,6,9,9.4,13.2c1.9,2.4,3.8,4.6,6.1,6.6c-2.3-7.1-4.8-14.2-7.7-21.1c-4.3-6.3-8.2-12.9-11-20
	c-0.7-1.8-2.5-3.9-1-5.7c1.9-1.9,5.4-2.9,7.7-1.1c2.4,6.2,6.5,11.6,8.8,17.8c2,4.7,5.2,9,9.4,11.9c0.4-4.8-0.1-9.7,0.1-14.5
	c0.1-3.1-0.4-6.4,1-9.3c2.2-2.1,6.9-3.2,8.5,0.1c3.4,10.4,8.2,20.2,13.4,29.8c2.6,4.5,4.7,9.3,8,13.3c1.4,0.2,3.1,0,4.1,1.4
	c1.4,1.2,0.7,3.3-0.3,4.5c-1.4,1.6-3.8,1.5-5.7,1.1c-3.7-0.9-6.2-4-8.1-7c-4.4-7.4-8.5-15-12.3-22.7c0.1,2.9,0.2,5.9-1.1,8.5
	c-1.7,2.9-5.4,3.5-8.4,2.9c1.7,4.6,3.2,9.2,4.1,14c0.8,3.3-2.9,6.1-5.9,5.9c-4.8-0.2-8.7-3.4-11.6-7c0.2,2.8,0.2,6-1.8,8.3
	c-2.6,3.1-7.2,3.8-10.9,2.7c-4.1-1.1-7.2-4.3-9.7-7.5c-5.4-7-8.8-15.2-12.4-23.2c-1.9-5-3.9-10-5.4-15.1
	C470.9,187.5,469,183,468.4,178.1 M357,143c3-1.5,6.6,1.3,6.2,4.5c-1,1.7-2.5,3.3-4.2,4.3c-1.6,0-2.7-1.7-3.8-2.7
	c-0.9-1.2-2.5-2.5-1.9-4.2C354.3,144,355.7,143.5,357,143 M517.7,139.8c3.2-1.8,6.6,0,9.4,1.6c0.5,0.5,0.4,1.2,0.6,1.9
	c0.4,4.7,2.1,9.2,3.3,13.8c0.6,2.1,2.1,4.3,1.3,6.6c-0.5,2-3.1,2.4-4.8,1.8c-1.7-0.7-2.1-2.7-2.8-4.2c-2.6-5.7-5.5-11.4-7.4-17.4
	C517,142.6,516.4,140.8,517.7,139.8 M399.7,204.9c-0.1,5.4,0.2,10.9,1.3,16.2c0.1,3,1.3,5.8,1.9,8.7c2.3,8.6,5.5,17.1,9.7,25
	c1.9,4.4,4.6,8.4,6.9,12.6c5.3,8,10.3,16.3,16.9,23.5c-1.3-4.2-2.5-8.4-3.8-12.7c-1.8-5.1-3.6-10.1-5.2-15.2
	C420.2,242.7,410.3,223.5,399.7,204.9 M334.4,194.2c-2.4,5.6-3.7,11.8-2.8,17.8c0.8,4.9,2.9,9.4,5.6,13.5c2.7,4.1,6,8,10.3,10.5
	c0.8-3.8,0.2-7.6,0.2-11.4c0-1.9-1-3.6-1-5.5c0-3-1.8-5.6-1.9-8.5c-1.6-7.3-4.4-14.3-6.6-21.4C336.4,190.4,335.2,192.3,334.4,194.2
	 M433.4,184.5c-1.1,1.1-0.9,2.8-0.9,4.3c4.4,4.8,6.7,11,9.5,16.8c3.1,6.6,6.6,13.4,12.3,18.3c1,0.7,2.6,1.8,3.7,0.8
	c2.2-4.4,1.3-9.6,0.9-14.3c-0.5-6.5-2.2-13.4-6.6-18.4c-3.6-4.1-8.9-6-14-7.6C436.7,183.7,434.8,183.4,433.4,184.5 M316.8,131.1
	c2.1-1.7,5.4-3,7.9-1.3c2.1,2.5,2.1,6,2.7,9c4.6,14,10,27.7,15.4,41.5c6.6,0.1,12,4.7,16.4,9.1c-1-3.3-1-6.9-2.3-10.2
	c0.5-2,3-2.8,4.8-3.3c2.2-0.8,4.2,1,4.9,2.9c5.9,13,12.1,25.9,20.3,37.7c-1.1-6.2-2.7-12.6-2-18.9c-0.1-1.8,2.3-3.1,3.7-2
	c1.5,2.1,2.3,4.6,2.9,7c0.6-3.3,1-6.7,0.6-10c-1.7-3.5-4.8-6-6.9-9.2c-0.6-0.8-0.1-1.7,0.4-2.4c1.4-1.9,4.2-2.7,6.2-1.4
	c1.2,0.9,1.9,2.2,2.9,3.4c1.2-3.2,2.7-6.5,5.7-8.3c3.2-2.1,7.7-2.6,10.9-0.2c5.1,3.4,8,8.9,10.7,14.2c1.1-0.6,2.1-1.2,3.2-1.8
	c0.3-2.3,0.8-4.7,2.6-6.3c3.6-2.7,8.5-3.6,12.7-2.3c7.4,2.1,15.1,5,19.8,11.4c3.2,4.2,4.5,9.5,5.9,14.5c0.5,7,2.3,14.4-0.7,21.1
	c-1.2,3.3-4.5,5.6-7.9,6c-3.5,0.4-7.1-0.6-9.8-2.9c-5.8-4.9-9.6-11.6-12.6-18.4c-1.7-3.6-3.5-7.3-5.2-10.9c-0.7-1.7-2.4-2.7-3.2-4.3
	c-0.5,1.3-1.1,2.7-0.4,4.1c3.2,8.6,4.3,17.8,4.5,26.9c-0.3,4.9-8.7,4.5-9.3-0.1c-0.5-1.7-1.3-3.3-1.8-5c-2-6-2.5-12.5-2.4-18.8
	c0-2,0.4-4-0.5-5.9c-2.7-5.9-5.3-12.3-10.6-16.3c-2.8,3-4,7.1-4.9,11c-0.2,0.7-0.1,1.4,0.3,2c10.1,16.6,19.4,33.6,27.2,51.3
	c1.4,3.8,3.1,7.5,4.3,11.3c4.1,11.5,8.2,23.1,11.5,34.8c1,3.4,2.4,7,1.6,10.6c-0.7,2.9-4.4,4.5-6.9,2.6c-6.5-6-12.9-12.4-17.9-19.8
	c-6.1-8.7-11.8-17.7-16.4-27.3c-1.9-5.8-4.9-11.3-6.4-17.2c-0.6-2.3-1.6-4.6-2.3-6.9c-3.1,2.9-8,1.3-10.1-2
	c-5.9-8.5-11.4-17.3-16.3-26.5c-0.8,2.1-3.3,2.9-5.3,2.3c-1.5-0.4-3.4-0.6-4.2-2.2c-2.2-4.1-5.1-7.9-8.2-11.4c-1.9-2-4-3.8-6.5-5
	c3.6,10.8,6.9,21.7,9.1,32.8c1.1,6,2,12.3,0.2,18.3c-0.5,1.8-1.7,3.6-3.6,4.1c-2.9,0.5-6-0.2-8.5-1.8c-6.1-3.4-10-9.4-13.7-15.1
	c-2.5-4.9-5.2-10-5.7-15.6c-0.5-4.8,0.4-9.5,1.6-14.2c1.6-5.8,5-11.4,10.5-14.2c-1.9-5.6-4.5-11-6.2-16.6c-1.7-4-2.8-8.1-4.6-12.1
	c-2.1-5.5-3.8-11.2-6-16.7C317.9,134.8,316.2,133.1,316.8,131.1 M271.6,257.4c1.1,3.9,2.2,7.8,3.4,11.6c4.5,13.1,10.9,25.7,20,36.3
	c3.5,4.2,7.9,7.6,11.8,11.5c4,2.9,8.1,5.7,12.3,8.2c-2.8-5.5-6.6-10.4-10.2-15.3c-7-8.9-13.9-17.9-20.2-27.4
	C283,274,277.7,265.4,271.6,257.4 M210.5,130c1.7-3.8,6.5-6.3,10.5-4.6c4.1,3,6.3,8,7.6,12.8c1.1,4.4,1.5,9.3-0.1,13.7
	c-0.7,1.9-3.7,2.6-4.7,0.5c-1.9-2.7-0.3-6.1-1.4-8.9c-1-2.7-0.4-5.9-2-8.5c-0.8-1.2-1.4-2.6-2.5-3.5c-2.1,2.9-3,6.4-3.8,9.8
	c-4.2,20.5-2.6,42.3,5.9,61.5c3.3,6.7,7.6,13.2,14.1,17c2.3,1.4,5,2.7,7.8,2c1.4-1.8,1.4-4.3,1.2-6.4c-0.9-6.9-2.3-13.8-5.4-20
	c-2-3.7-3.1-7.9-5.1-11.7c-0.5-1-1-2.4-0.2-3.4c1.2-1.2,2.9-2.1,4.6-2.4c1.9,0,3.1,1.6,3.8,3.2c2.1,4.9,4.3,9.8,6,14.9
	c2.3,6.3,5.3,12.3,8.4,18.2c-1.1-5.2-2.7-10.2-3.5-15.5c0-1.1,1.2-1.3,2-1.7c1.4-0.7,3.2-1.5,4.6-0.5c1,0.5,1.1,1.7,1.4,2.7
	c1.3,6.4,3.4,12.7,4.4,19.1c0.7,4,1.4,8,2,12c0.3,1.9,0.6,3.8,1.5,5.5c4.8,8.3,10.1,16.4,15.6,24.3c6.6,10,13.2,20,20.1,29.7
	c7.1,9.3,14.5,18.3,20.5,28.4c1.7,3,3.7,6.1,4.1,9.6c0.5,3-2.3,6.3-5.4,5.8c-4.1-0.5-7.6-2.7-11.2-4.7c-4.5-2.8-8.9-5.8-12.6-9.5
	c-3.6-3.7-7.9-6.9-10.8-11.3c-7.1-9-12.9-18.9-17.1-29.6c-2.8-7.2-5.1-14.5-6.9-22c-1.4-5.9-2.5-12-3.9-17.9
	c-0.3-1.5-1.1-2.7-1.9-3.9c-2.8-4-5.2-8.2-7.4-12.5c-2,4.4-7.2,6.9-11.9,6.2c-3.4-0.5-6.6-1.7-9.4-3.6c-4.9-3.3-9.2-7.7-12.2-12.8
	c-1.7-3.3-3.8-6.4-5-9.9c-1.5-4.4-3.6-8.7-4.4-13.3c-1.6-8.8-2.5-17.7-2.7-26.6c0.2-5.7,1-11.5,1.5-17.2
	C206.8,139.8,208.3,134.7,210.5,130 M544.2,117.2c1.8-1,4.7-1.3,6,0.7c1.2,1.5,0.4,3.5,0.8,5.2c1,5.1,2.7,9.9,4.4,14.8
	c3.8,0.8,7.6,1.6,11.5,1.8c2.5-0.3,5.1-1.2,7.6,0c0.9,0.6,1.6,1.6,2,2.5c-0.6,2.7-2.7,5.7-5.7,5.8c-4.1-1.1-8.4-1.3-12.6-2.2
	c1.5,5.7,4,11,5.5,16.7c0.6,4.3,2,8.5,3.7,12.5c4.8,12.8,10.5,25.4,16.8,37.5c1.7,3.4,3.6,6.6,5.9,9.7c2.2-2.5,6.9-0.7,7,2.6
	c0,2.1-0.6,5.1-3,5.7c-3,1.6-6.9,0.9-9.6-1c-3.4-3.7-5.3-8.5-7.8-12.8c-2.3-4-3.9-8.3-5.9-12.4c-3.4-7.5-6.6-15-9.5-22.7
	c-1.6-4.2-2.7-8.5-4.4-12.7c-3-8.3-5.7-16.6-8.4-25c-6.7-1.7-13.5-2.6-20.3-3.7c-2-0.3-3.6-2.1-3.8-4.1c-0.2-0.7,0.4-1.4,1-1.6
	c2-1,4.4-1.4,6.6-1.1c4.7,0.6,9.4,1.7,14,2.5c-1-3.5-1.8-7.1-2.8-10.6c-0.4-1.6-1.9-3-1.6-4.8C541.3,118.8,543,118,544.2,117.2
	 M104,139.4c3,15.1,7.2,30,13.8,43.8c-1.1-4.7-2.6-9.3-3.4-14c-0.7-4.9-2.2-9.6-3.2-14.4c-2.6-8.8-4.6-17.8-8.4-26.1
	C102.8,132.4,103.4,135.9,104,139.4 M97.6,118.1c1.4-2,4.2-2.1,6.3-1.5c1.4,1.2,2.3,3,3.1,4.6c2.4,5.4,4.9,10.8,6.5,16.5
	c3.5,11.8,7,23.7,9.6,35.8c0.8,3.7,1.6,7.4,3.2,10.8c-0.3,1.2-0.2,2.9-1.4,3.7c-1.9,0.2-3.8-0.1-5.4-1.1c2.6,4.8,5.1,9.7,8,14.4
	c4.4,7.1,8.4,14.7,13.9,21c1.5,1.7,3.2,3.1,5.3,4c0.4-1.2,0.8-2.4,1.2-3.6c0.4-0.3,0.7-0.6,1.1-0.8c-3.8-7.1-6.1-14.8-8.5-22.4
	c-1.7-7.8-3.3-16-1.6-24c0.7-3.8,4.8-7.2,8.7-5.7c3.4,1.8,5.6,5.4,6.3,9.1c-0.3,1.3-1.6,2.1-2.7,2.7c-1.6,0-3.2-0.6-4.7-1.2
	c-0.2,4.7,0.7,9.4,1.4,14.1c1.8,8.5,4.2,16.9,8.7,24.4c1.9,3.1,4.1,6.1,6.9,8.5c-0.3-3.5-1.5-6.9-2.4-10.2
	c-2.5-9.8-6.3-19.1-10.5-28.3c-0.8-1.3,0.5-2.3,1.5-2.9c1.4-0.9,3-2,4.7-1.6c1.4,0.3,2.3,1.5,2.8,2.8c7.2,16.8,16.8,32.7,29,46.4
	c1.8,2.1,3.9,4,6.4,5.3c1.6,0.4,3.5,0,4.9,1.1c0.9,1.1,0.1,2.6-0.3,3.8c-1.6,2.1-4.5,3.2-7.1,2.4c-4.1-1.3-7.5-4.2-10.4-7.3
	c-3.6-4.2-6.8-8.7-10.4-13c0.3,2.5-0.1,5.3-1.9,7.2c-1.6,1.8-4.2,1.9-6.4,1.8c-4.1-0.3-7.1-3.4-9.7-6.3c-0.4,2-1.7,4-3.8,4.5
	c-4.6,1.1-9.2-1.1-12.7-4c-2.4-2.4-4.5-5.2-6.3-8.1c-1.1-1.9-2.7-3.4-3.7-5.3c-7.1-13.1-15.3-25.7-20.6-39.7
	c-4.4-10.3-6.7-21.4-9-32.3c-0.5-2.2-0.3-4.6-1-6.8c-1-3.2-0.5-6.6-0.5-9.9C96,123.8,96.3,120.7,97.6,118.1 M67.5,109.1
	c2.4-1.6,6.4-2.5,8.2,0.4c4.3,11.4,7.5,23.1,10.5,34.9c1.1,5.7,2.9,11.3,5,16.6c5.4,12.4,10.6,25,17.8,36.5
	c4.2,6.3,7.5,13.3,12.3,19.2c1.8,2,4.5,3.9,4.3,7c0.1,1.6-1.7,2.1-2.9,2.6c-1.5,0.6-3.2,0.1-4.3-0.9c-5.2-4.1-8.1-10.2-11.6-15.6
	c-1.4-2.2-2.5-4.5-3.9-6.7c2.2,8.1,5.6,15.8,7.8,23.9c1.5,3.5-1.2,8.2-5.1,8.5c-3.9,0.6-7.4-1.8-10.5-3.9
	c-9.4-7.3-14.8-18.2-19.6-28.8c-7-14.1-11.4-29.2-16.4-44.1c-4.4-13.5-8.1-27.5-16.4-39.2c-0.1,0-0.4,0.1-0.5,0.1
	c-2.7,10.1-0.9,20.8,3,30.3c1.5,3.3,2.6,7,5.2,9.7c0.7,0.6,0.9,1.8,0.1,2.3c-1.3,0.9-3,2.4-4.6,1.1c-4.2-2.2-5.4-7.2-7.2-11.2
	c-4.6-9.6-5.9-20.6-4.7-31.2c0.5-2.8,1.1-5.9,3.2-8.1c3-2,7.5-1.8,10,0.9c3.4,3.3,5.6,7.5,7.9,11.5c3.9,7.7,7,15.9,9.7,24.1
	c3.8,11.5,7.5,23.1,11.5,34.6c2.8,7.7,6.4,15.1,9.7,22.6c4.2,7.7,8.5,16,16.2,20.8c-1.1-3.7-2.5-7.4-3.7-11.1
	c-5.3-15.4-9.7-31-14.1-46.7c-1.2-4.2-1.8-8.7-3.6-12.7c-1.3-2.8-2.1-5.9-3.5-8.7c-2.1-4.5-3.7-9.3-5.3-14
	c-1.9-5.3-3.6-10.8-4.6-16.4C66.9,114.7,66.6,111.7,67.5,109.1 M625.9,224.9c-0.7,6.9-2,13.7-2.4,20.6c-1.9,15.7-1.4,31.6-1.5,47.4
	c-0.3,3.2,0.5,6.3,0.8,9.4c1.5,12.4,2.7,25,5.6,37.2c1.7,5.6,3.6,11.1,6.3,16.3c1.9,3.3,3.5,6.8,5.7,9.9c2.9,3.3,5.7,6.9,9.3,9.5
	c2.7,1.6,5.9,3.1,9.2,2.7c2.4-0.4,3.2-3.1,3.9-5.1c2.3-9.1,2.2-18.7,0-27.7c-3.4-14-5.7-28.1-8.9-42.2c-2.6-10.7-5.2-21.4-8.6-31.9
	c-1.5-4.7-2.7-9.6-4.7-14.2C636.7,245.8,631.8,235.1,625.9,224.9 M603.9,207.5c-1.2,6.9-0.4,14.4,3.7,20.2c1.2,1.5,2.2,3.4,4.2,4
	c1.4-1.5,2-3.5,2.4-5.4c1.1-6.3,0.5-12.9-2-18.7c-0.9-2.2-3-4.1-5.5-4C605.2,204.3,604.2,205.9,603.9,207.5 M615.2,186.9
	c1.4,4.7,3.1,9.3,3.8,14.1c0.1,1.3,1.3,2.2,2.1,3.2c0.8-2,0.8-4.2,1.2-6.3c0.4-2.9,1.2-5.7,1.7-8.5
	C621.3,187.8,618.3,187.3,615.2,186.9 M641.2,38.6c3.7-3.3,9.4-4.4,14-2.5c2.3,0.8,3.6,3.1,4.6,5.2c2.1,4.6,2.9,9.7,2.2,14.7
	c-0.7,5.8-1.3,11.7-2.3,17.5c-0.9,3-1.1,6.2-1.8,9.3c-2.9,12.2-5.6,24.5-9.1,36.6c-0.7,2.7-1.1,5.5-2,8.1c-1.5,4.2-2.3,8.6-3.4,13
	c-3.2,10.9-5.6,22-8.2,33c-1.4,5.8-2.3,11.7-3.6,17.5c-0.9,2.1-0.6,4.4-1.2,6.6c-1.1,4.9-2,9.9-2.5,15c2,3.3,4.4,6.3,6.3,9.6
	c1.9,4.1,4.6,7.9,6.3,12.1c4.5,9.7,8.5,19.6,11.6,29.9c2,4.7,2.7,9.8,4.4,14.6c1.6,4.7,2.3,9.7,3.7,14.5c1.2,4.3,1.7,8.7,2.9,13
	c1,3.4,1.2,6.9,2,10.4c0.5,2.6,0.3,5.4,0.9,8c1.1,5.4,2.1,10.7,3.3,16.1c0.5,4.2,1.7,8.4,1.6,12.7c0.7,6.3,0,12.7-1.6,18.8
	c-1.2,4.9-4.8,9.2-9.5,11.1c-5.4,1.3-11.1-0.8-15.6-3.7c-4-3.6-7.5-7.7-10.9-11.8c-9.2-13.7-13.2-30-16.3-46
	c-0.6-6.3-0.7-12.6-2-18.8c-1.6-21.1-1.1-42.4,0.7-63.5c-2.9,1.5-6.5,0.6-8.9-1.5c-6.2-5-9.6-12.7-11-20.4
	c-0.8-5.7-0.9-12.3,3.2-16.9c2.5-3.2,6.7-4.6,10.7-3.9c-1.1-3.5-2.4-7-3.5-10.6c-3.9-0.1-7.9-0.2-11.8,0.6c-3,0.7-6.5-2.1-5.6-5.3
	c0.8-2,2.9-3.3,5-2.9c3.1,0.4,6.1,0.3,9.2,0.1c-1.7-3.2-3.6-6.4-5.8-9.3c-0.9-0.9-1.8-2.3-3.3-2.2c-2.5,0.5-4.5,2.6-5.3,4.9
	c-0.6,2.6,0.3,5.6-1,8.1c-0.7,1.4-2.1,2.8-3.7,2.3c-1.4-0.6-2.7-1.5-3.7-2.7c0.3-4.5,0.1-9.5,3-13.3c2.8-4.2,7.8-6.8,12.8-6.4
	c3,0.2,5.4,2.4,7.4,4.5c3.5,4.3,6.2,9.3,8.4,14.4c4.5,0.5,9,1.3,13.4,1.9c1.6-4.3,1.9-8.9,3-13.3c1.4-6.1,3-12.2,4.5-18.3
	c1.4-5.8,3.3-11.5,4.9-17.3c3.6-12.7,6.4-25.6,9.9-38.3c2-5.3,2.6-10.9,3.9-16.4c0.6-2.8,1.2-5.5,1.9-8.3c1-8.3,3.1-17.1,0.1-25.3
	c-0.5-2.2-3-3.9-5.2-3.2c-2.6,1.1-4.7,3.1-6.6,5.1c-3.9,4.4-7.5,9-10.2,14.3c-2.3,4.4-4.1,9.1-6.7,13.3c-1.1,1.5-3.7,0.4-3.3-1.5
	c0.5-2.9,2-5.4,3.2-8c1.8-3.5,3.2-7.1,4.9-10.6C633.1,47.9,636.4,42.6,641.2,38.6"/>
</svg>
