<svg id="Layer_1" data-name="Layer 1" xmlns="http://www.w3.org/2000/svg" xmlns:xlink="http://www.w3.org/1999/xlink" viewBox="0 0 712.8 387.99"><defs><style>.cls-1{fill:none;}.cls-2{clip-path:url(#clip-path);}.cls-3{clip-path:url(#clip-path-2);}.cls-4{fill:#fff;fill-rule:evenodd;opacity:1;isolation:isolate;}</style><clipPath id="clip-path" transform="translate(-3.1 -2.4)"/><clipPath id="clip-path-2" transform="translate(-3.1 -2.4)"><rect class="cls-1" x="-60.47" y="-107.94" width="841.89" height="595.28"/></clipPath></defs><g class="cls-2"><g class="cls-3"><path class="cls-4" d="M277.85,214.94c1.52-1.68,3.7-3.55,6.15-2.9,1.7.72,2.19,2.74,2.77,4.32a16.62,16.62,0,0,1-2.45,2.85c-2-1.11-4-2.16-6-3.27-.13-.25-.39-.75-.51-1m214.64-54.73c1.63-.32,4.38-1.28,4.91,1,.39,4.52,2,8.79,3.18,13.12A197,197,0,0,0,515.15,209c3,4.79,6,10,11,13a9.17,9.17,0,0,0,4.94,1.31c1.84-3.23.33-6.92,0-10.32a85.26,85.26,0,0,0-5.3-16.59c-6.18-9.57-12.56-19.09-17.36-29.45-.82-1.1.43-1.84,1.33-2.16a6.57,6.57,0,0,1,3.72-.69c1.11.57,1.64,1.81,2.31,2.81a233.85,233.85,0,0,1,14.17,24.74c2.79,5.58,7,10.24,10.85,15.08a50.15,50.15,0,0,0,10.29,10.13c-.33-4.72-2.69-8.91-3.79-13.45-2-4.95-3.69-10-5.72-15a109.14,109.14,0,0,1-12.67-22.93c-.39-1.36-2.21-3-.88-4.29,1.68-1.3,4.08-2.19,6.06-1,2.21,6.46,6.58,11.85,9,18.2a34.51,34.51,0,0,0,13.78,17.07c1.18-6,.26-12.09.48-18.14.16-3.53-.48-7.27.81-10.64,1.9-1.54,6.32-2.81,7,.56,4.71,14.42,11.92,27.82,19.34,41a37.11,37.11,0,0,0,5.3,7.7c1.53.46,3,1,4.51,1.61-.86,1.29-1.63,3.1-3.45,3.1-5.07.44-8.43-4.11-10.79-7.93a280,280,0,0,1-16.3-31.37c-.79,5.24.89,10.77-1,15.81-2.22,3.84-7.51,3.29-10.94,1.54,2.27,6.2,4.59,12.43,5.73,19,.46,2.23-1.74,3.73-3.53,4.43-3,.61-6.1-.87-8.57-2.53-3.42-2.3-5.61-5.86-8.53-8.68.46,3.92,1.78,8,.18,11.86-1.78,4-6.83,5.19-10.75,4.22-4.59-.92-8-4.48-10.79-8-6-7.75-9.79-16.89-13.74-25.79-1.75-4.4-3.37-8.84-4.95-13.3-1.6-6.11-4.45-11.9-5.35-18.2.31-.5.64-1,1-1.54M121.3,158.28c.74-3.3,4.32-6.45,7.77-5a14.18,14.18,0,0,1,5.9,8.63l-1.72,1.48a11.9,11.9,0,0,1-4.2-1.23c-.51-1-1-2-1.6-3-2,6.73-.09,13.71.75,20.46,2.46,11.74,6.08,23.66,13.54,33.26,2,2.5,4.2,5.07,7.25,6.35.3-6.18-2.29-11.95-3.67-17.85a212.67,212.67,0,0,0-11.2-29.23,10.85,10.85,0,0,1,4.18-2.54c1.51-.28,2.6.91,3,2.21,8.41,19.47,19.55,37.88,33.84,53.62a28,28,0,0,0,7.37,5.7,8.06,8.06,0,0,1,4.43.53c-.2.72-.37,1.44-.55,2.17a5.88,5.88,0,0,1-6,2.1c-6.46-2-10.89-7.44-15-12.5-2.59-3.85-5.82-7.19-8.55-10.92-1.44-1.91-2.42-4.13-4-6A63.72,63.72,0,0,1,155,216a6.82,6.82,0,0,1-3.2,6.64c-2.93.82-6.42.78-9-1.08-4.36-3-7.57-7.35-10.28-11.83-4.2-8-6.88-16.66-9.57-25.23-1.82-8.58-3.58-17.53-1.7-26.23M362,124.89c1.74-.9,3.61-2.11,5.65-1.78,1.51.35,2,1.86,2.51,3.15a16.69,16.69,0,0,1-3.55,3.81,15.27,15.27,0,0,1-4.61-5.18m186.11-2.52a7.05,7.05,0,0,1,6.55-1.19c.37,5.33,2.06,10.39,3.56,15.49.25,3,2.2,6.18.42,9-1.35-1-3.11-1.83-3.79-3.51-1.85-4-3-8.2-4.51-12.32a50.91,50.91,0,0,1-2.23-7.44M433.53,263.75h0M411.21,186a109.41,109.41,0,0,0,0,14.71c.22,4.34,1.5,8.56,1.63,12.91a36.57,36.57,0,0,1,2.05,7c2.52,8.78,5.51,17.49,9.89,25.54l-1.29.26,1.45.13c1.65,2.82,2.68,6,4.53,8.69s2.92,5.54,4.73,8.12c7,10.51,13.57,21.56,23,30.1q-3.06-10-6-20c-2.15-6.06-4.33-12.11-6.26-18.25a350.14,350.14,0,0,0-20.89-46.48c-4.27-7.57-8.09-15.42-12.85-22.71m-74-6a39.56,39.56,0,0,0-2.81,19.46c1.32,8.37,5.88,15.81,11.31,22.15,2.64,2.75,5.5,5.55,9.13,6.93,1.91-4.73.83-9.88.84-14.83.36-2.25-1.26-4.19-1.1-6.44a18.88,18.88,0,0,0-1.79-7.1C352.6,196,351,192,350,188c-2.14-5.65-3.6-11.53-5.89-17.13a19.48,19.48,0,0,0-6.83,9.1M451.13,166.2c-3.38.73-3.63,4.94-3.22,7.69a37.53,37.53,0,0,1,6.07,8.89c5.39,10.79,9.53,22.83,18.88,31,1.75,1.41,5.3,2.81,6.67.3,2.64-5.35,1.63-11.54,1.14-17.26-.56-7.92-2.88-16.18-8.51-22-4.53-4.62-10.82-6.74-16.88-8.55a7.24,7.24,0,0,0-4.15,0M321,109.4c2-1.08,4.27-2.42,6.45-1.08a16,16,0,0,1,2.06,8.14c5.31,16.5,11.83,32.56,18,48.73.89.25,2.23-.14,2.59,1,0-.24,0-.71,0-.95,3.21.79,6.47,1.79,9.05,4a49.89,49.89,0,0,1,10.4,9.7c.09-3.9-1.85-7.46-2-11.32a16.26,16.26,0,0,0-1.37-5.12,8.31,8.31,0,0,1,5.58-2.21c1.8.7,2.38,2.71,3.09,4.32,4.72,10,9.36,20.13,15,29.68,3.71,6.13,7.64,12.13,11.49,18.18-.39-4.86-2.18-9.47-2.6-14.32-.92-4.84-1.77-9.75-1.14-14.69l1.62,0c1.83,2.64,2.56,5.79,3.74,8.73,1,2.82,1.06,5.87,2,8.71l.83.44c-.32-3.46-.9-6.89-.28-10.36-1-2.76.43-5.46.27-8.26,0-1.89.35-3.83-.08-5.69-2-4-5.58-7-8-10.74.67-2.18,4.42-3.5,5.9-1.36,1.36,1.72,2.7,3.47,3.9,5.31,1.53-4.21,2.89-9.19,7.08-11.56,3.14-2.07,7.7-2.42,10.65.2,5.91,4.06,8.92,10.8,12.13,17,1.41-1.86,3.61-2.62,5.58-3.61.26-2.52.53-5.41,2.68-7.1a14.55,14.55,0,0,1,11.75-2.26,93.17,93.17,0,0,1,10.26,3.49,27.64,27.64,0,0,1,13.94,12.1c2,3.95,3.12,8.26,4.3,12.51.39,6.26,1.77,12.6.59,18.84-.94,2.72-1.61,5.85-4.14,7.58-3.37,2.75-8.28,2.59-12.07.84-3-1.55-5.39-4.11-7.53-6.71a51.2,51.2,0,0,1-7.2-11.78c-2.83-5.81-5.5-11.7-8.41-17.46l-1.41-.57c-.14-.26-.41-.8-.54-1.05-1.14-.81-1.39-2.24-1.87-3.44-1.69,2.1-3.54,4.85-2.41,7.65,3.61,9.48,4.83,19.65,5.07,29.72a13,13,0,0,1-3,2.07c-1.29-.37-2.59-.7-3.88-1a19.59,19.59,0,0,0-1.05-3.47c-3.95-8.85-4.33-18.79-3.86-28.33-.33-2.6-1.81-4.85-2.8-7.22-2.3-4.91-4.88-9.88-9-13.54-.79-.65-1.61-1.62-2.75-1.47-1.52.6-2.33,2.16-3.21,3.43a36,36,0,0,0-3.73,10.32c-.73,2.67,1.67,4.68,2.78,6.86,10.36,17.49,20.17,35.36,28.35,54,1.52,4.43,3.72,8.61,4.91,13.16,3.42,8.72,6.12,17.67,9.21,26.51,1.68,5.4,3.15,10.87,4.86,16.26.42,2.66,1.55,5.8-.54,8a28.83,28.83,0,0,1-4.22.54c-3.5-3.52-7.3-6.74-10.52-10.53-8.65-10.38-15.68-22-22.57-33.54l1-.47a12.81,12.81,0,0,1-1.61-2.22l-.53.6-.76-1.86,1.12-.22-1.42-.23a5.3,5.3,0,0,1-1.43-4.17,4.45,4.45,0,0,1-2.12-2.22c-.9-2.16-2.64-4.14-2.41-6.63l-.67-.15c.11-.36.31-1.08.41-1.44-1.44-2.47-3.1-4.89-3.5-7.8a4.9,4.9,0,0,0-1.26-2.54c-.49-3.62-2.37-6.9-2.6-10.56-.27,1.18-.56,2.35-.88,3.52-1.22.95-2.45,2.26-4.17,1.83-2.95.14-4.86-2.42-6.41-4.56A321.08,321.08,0,0,1,377,182.74a50.33,50.33,0,0,1,.39,7c-.43,1.3-1.89,1.38-3,1.57-1.57-.74-4-.34-4.71-2.25A67.49,67.49,0,0,0,360.07,176c-3-3-6.51-6.05-10.94-6.48a276,276,0,0,1,10.71,36.07c1.4,7.52,3.08,15.41.92,23-.5,1.81-1.8,4-4,3.81a11.57,11.57,0,0,1-7.93-2.31c-5.25-2.82-8.66-7.88-12-12.61a42.93,42.93,0,0,1-5.23-9.74c-3.66-6.71-4-14.76-2.24-22.09,1.26-7.86,5.35-16.11,13.13-19.25-2.35-7-5.63-13.61-7.72-20.67-2-4.09-2.9-8.6-4.86-12.7-2-5.36-3.66-10.86-5.76-16.19-.59-2.67-2.47-4.8-3.18-7.43M264.8,240.83c1.84,7.53,3.84,15,6.14,22.44,1.29,4.5,3.46,8.68,5,13.11,3.16,6.42,6.33,12.88,10.4,18.78,4.47,6.42,9.32,12.7,15.34,17.74,2.74,2.25,4.92,5.14,8,7,5.18,3.41,10.15,7.27,15.91,9.66a51.24,51.24,0,0,0-6.76-12.17c-4.12-6.41-9-12.26-13.6-18.31-12.95-16.31-23.67-34.21-35.8-51.11-1.65-2.29-2.81-4.91-4.58-7.13M202.09,107.05c1.88-3,5.86-4.9,9.26-3.46,5,4.16,7.23,10.64,8.35,16.87a23.18,23.18,0,0,1-.8,10.82l-2.86-.66c-1.24-2.58.42-5.46-.78-8-1.36-3.37-.51-7.34-2.56-10.46a49.66,49.66,0,0,0-3.49-5.2c-2.45.71-3.48,3.18-4.42,5.3-2.1,5.31-3,11-3.72,16.61-2.68,20.93-.08,42.76,8.82,62,3.66,6.94,8.21,13.84,15,18,3.38,2.2,7.63,4.36,11.7,2.73,2-2.71,2.19-6.23,1.72-9.45-1.08-8.06-2.86-16.18-6.75-23.38-1.92-3.64-2.92-7.66-4.81-11.3-.3-.88-1.12-1.8-.77-2.75a9,9,0,0,1,3.89-2.05c1.43,0,2.23,1.42,2.76,2.53,2.43,5.72,5,11.4,6.88,17.31,3.81,10,8.94,19.38,14,28.75-.86-9.12-4-17.8-5.62-26.78,1.7-.42,3.81-2.61,5.36-.83,1.25,6.08,2.93,12.07,4.45,18.11.81,4.89,1.85,9.75,2.58,14.66.71,3.47.72,7.17,2.42,10.36,5.23,8.9,10.74,17.62,16.66,26.06,5.87,8.63,11.36,17.52,17.48,26,7.24,11.56,16.68,21.51,24.08,33A95.75,95.75,0,0,1,328,323a17.9,17.9,0,0,1,2.36,6.76c.15,2.23-1.77,4.61-4.11,4.44-4-.29-7.47-2.62-11-4.38-5.54-3.36-11-7-15.55-11.67-2.59-2.82-5.76-5-8.2-8-2.49-2.17-3.8-5.29-6.11-7.6-2.49-3.13-4.3-6.72-6.64-9.94-1.38-3.31-3.85-6-5.08-9.41-5-9.61-8.15-20.05-11.16-30.43-2.15-8.37-3.57-16.9-5.61-25.29-1.46-3.2-3.92-5.8-5.53-8.91-2-3.23-3.84-6.55-5.57-9.92a2.68,2.68,0,0,0-1.42-1.41,9.28,9.28,0,0,1-5.21,7.49c-4.56,2.79-10.2,1.19-14.69-.91a42.14,42.14,0,0,1-17.21-18.44c-3.34-4.93-4.72-10.82-7-16.24-2-7.61-4-15.32-4.15-23.24-1.42-4.31-.65-9-.49-13.42-.09-5.15,1.21-10.21.83-15.38,1-2.23,1.07-4.68,1.26-7.07a47.44,47.44,0,0,1,4.35-13M575.84,94.19a8.46,8.46,0,0,0,2.9-.49c.7.62,1.9,1,2,2s-.2,2.05-.1,3.08c1.12,6.39,3.37,12.5,5.46,18.62a100.45,100.45,0,0,0,14.52,2.32c2.48-.46,5-1.33,7.45-.28.42.54.86,1.07,1.3,1.61-.87,2.2-2.16,4.48-4.77,4.73-2.55-.95-5.3-1-8-1.46-2.84-.36-5.63-1.07-8.46-1.43,1.16,3.66,2.18,7.37,3.54,11,1.39,4.3,3.55,8.41,3.9,13,1.1,5.48,3.48,10.61,5.42,15.82,3.45,9.42,7.82,18.45,12,27.57,4.17,7.89,7.62,16.31,13.47,23.17a6.81,6.81,0,0,1,2-2.39c1.5-.36,3.56.35,3.89,2,.62,1.74-.36,3.4-1,5-1,.33-1.94.66-2.89,1l1.32,1.85c-3-.6-6.16-1.24-8.66-3.09-3.16-3-4.17-7.59-7.12-10.78a12.24,12.24,0,0,0-1.34-3.33c-2.77-4.62-4.54-9.73-7-14.52-4.5-10-8.81-20.06-12.37-30.42-1.21-4.78-3.41-9.24-4.81-14-2.84-7.71-5.19-15.58-7.76-23.38-7.77-1.89-15.69-3.14-23.6-4.31a3.75,3.75,0,0,1-3.07-3.25A11.22,11.22,0,0,1,561,112.6c6.06.81,12,2.26,18,3.29-1.26-4.53-2.37-9.1-3.58-13.64a17.34,17.34,0,0,0-2-4.65c0-.42,0-1.28.06-1.7.76-.6,1.54-1.17,2.32-1.71M74.68,95c1-1.82,3.43-1.63,5.2-1.35,2.64,3.18,3.86,7.19,5.58,10.89,4,8.58,6.08,17.84,8.78,26.85,2.43,8.36,4.54,16.79,6.39,25.29.93,3.9,1.56,8,3.49,11.54l-.57,2.44c-1.67-.12-3.89,0-4.91-1.58A154.9,154.9,0,0,1,94,152c-.58-5.71-2.54-11.13-3.62-16.75-2.65-8.78-4.65-17.77-8.06-26.3-1.58-3.33-2.63-6.86-4-10.27-1.7,6.31-.21,12.87.61,19.21,3.69,18.56,8.88,37,17.74,53.82,3.38,6.66,7,13.22,11,19.54,4.36,7.36,8.64,14.86,14.38,21.25a18.54,18.54,0,0,0,7.4,4.82,26.55,26.55,0,0,0,1.79-5.19c3.58.9,4.59,6.3,1.59,8.41-2.19,1.42-4.94.67-7.35.35-2.7-1.32-5.56-2.56-7.59-4.86a48.93,48.93,0,0,1-5.86-7.8c-1.27-2.35-3.43-4.08-4.43-6.6-6.9-12.37-14.36-24.46-20.2-37.4-1.22-2.54-1.83-5.34-3.25-7.79l1-.88-1.23.35c-4.47-11.65-7.11-23.92-9.48-36.13.43-3.78-1.82-7.24-1.33-11,.21-4.59-.39-9.45,1.55-13.75M40.94,84.8c2-1,4.79-2,6.49.08C50,91.58,52,98.48,54.2,105.3c1.75,7.44,4.26,14.7,5.64,22.23a110.64,110.64,0,0,0,7.73,21.39c5.71,13.67,11.94,27.22,20.24,39.53a140,140,0,0,0,10.81,17c1.77,2.23,5.13,4,4.52,7.37-1.41.79-3.27,1.84-4.78.66-6.53-4.76-9.78-12.42-14.16-19-3.44-6.31-7.31-12.37-10.76-18.67.27,2.54,1.33,4.89,2,7.35,3,9.39,6.32,18.67,9.52,28a70.62,70.62,0,0,1,2.11,7.6c-.62,2.24-1.85,5-4.57,5.07-2.87.83-5.62-.74-8.08-2a28.38,28.38,0,0,1-6.87-5.5c-8-7.75-12.82-17.91-17.38-27.87-6-12.15-10.46-25-14.56-37.88-3.33-9.6-6.18-19.36-9.44-29C24,115.79,22.1,109.76,19,104.31c-2.33-4.1-4.27-8.65-7.79-11.89a7.76,7.76,0,0,0-1.86,4c-2.85,12.28-.23,25.24,5,36.53,1.28,3.21,2.73,6.46,5.29,8.86-.85.48-1.68,1-2.53,1.46-5.06-1.94-6.17-7.69-8.23-12.06C3.68,120.67,2.27,108.61,3.54,97c.44-2.8,1.09-5.73,2.87-8a7.86,7.86,0,0,1,7.86-.33c4.62,3.6,7.24,9,10.14,14,6.44,12.79,10.68,26.53,15,40.13,2.45,6.71,4.27,13.64,6.83,20.33,3.35,10.93,8.61,21.12,13.1,31.59,1.86,2.75,3.26,5.77,5,8.57,4,6.73,9.54,12.79,16.7,16.18-1.1-4.84-2.94-9.45-4.47-14.15-6.2-17.67-11.25-35.72-16.36-53.72-1.64-5.42-2.29-11.2-4.88-16.3-1.21-2.77-1.94-5.74-3.32-8.45-3.35-7-5.5-14.44-8.08-21.73-1.73-6.63-4.34-13.44-3.06-20.34M665.48,208.61c-.34,4.47-1,8.91-1.42,13.38l-1-.42c.16.28.48.83.63,1.11-.11,2.86-.65,5.69-.85,8.55-.16,2.35-1.16,4.61-.74,7l-1-.33c.21.3.65.89.87,1.19,0,2.65-.47,5.27-.62,7.9l-.76.43c1.06.75.52,2.16.56,3.24a242.74,242.74,0,0,0-.5,25.31c-1.1.38-.69,1.26-.36,2.06.75,2.68.37,5.49.45,8.24a4,4,0,0,1-.48,2.08c.92,1.77.41,3.77.37,5.67a5.44,5.44,0,0,1,.75,2.69c.15,3.42,1.16,6.84.76,10.31-.4,2.55,1.91,5.09.47,7.56l.88-.06c-.74,1.5-1.68,4.73.39,5.42l-.66.82c.47.88.93,1.78,1.41,2.66l-.91.92a11.14,11.14,0,0,0,1.28,2.89c.12.87.24,1.74.38,2.62,0,.23-.14.7-.19.93,1.53,1.41,1.22,3.61,1,5.46,1.34,2.1,1.09,4.77,1.9,7.08,2.21,7.29,4.78,14.56,8.72,21.13,2,3.19,3.31,6.81,5.93,9.57,3.27,3.63,6.34,7.59,10.49,10.29,3.26,1.63,6.61,3.79,10.43,3.23,3.2-.6,4.78-3.86,5.78-6.63,1.74-5.87,2.1-12,2.21-18.12-.21-10.82-4-21.09-5.8-31.67-2.89-13.64-5.1-27.44-8.92-40.86-1.54-7.74-4-15.23-6.16-22.8-2.14-6-3.35-12.24-6-18a211.54,211.54,0,0,0-19.24-40.81M659.12,200a79.52,79.52,0,0,1,.73,11.94c.51-3.06.66-6.17,1.29-9.2-.31-1.15-1.3-1.88-2-2.74m-19-5.06a34.52,34.52,0,0,0,8.6,27.56c.87.75,2.11,2.37,3.36,1.39,1-3.49,2.14-7.29,1.35-10.91l.58-.19c-.55-3,.1-6.08,0-9.11-.7-3.53-1-7.12-1.59-10.66-1.55-2.55-4.39-4-7.15-4.89a7.94,7.94,0,0,0-5.13,6.81m12.16-25.87c1.91,6.43,4.46,12.7,5.22,19.42a39.54,39.54,0,0,0,4.61,5.16c.27-.59.55-1.17.84-1.76a3.21,3.21,0,0,1,.67-2.75,11.07,11.07,0,0,1,.92-5.79l1.4.54a1.74,1.74,0,0,1-1-1.85c0-2.55,0-5.17,1.15-7.51,0-.74.08-1.48.14-2.22-2.07.18-3.58-1.51-5.53-1.83-2.81-.57-5.64-1-8.47-1.41M691.15,2.85a11.58,11.58,0,0,1,9.51,1.36c3.73,4.31,5.06,10.1,5.31,15.67.07,1.8-.67,3.52-.59,5.33.17,6.19-1.35,12.25-2.24,18.33-1,2.6-1.11,5.38-1.58,8.1-3.32,13.87-6.28,27.83-10.26,41.53-1.26,3.53-1.45,7.34-2.71,10.86-2.34,6.7-3.21,13.79-5.56,20.48l-1.62-1.59c.48.63,1,1.26,1.51,1.87-3.66,15.24-7.67,30.43-10.41,45.88l-1.41.38,1.28.1c-.52,2.22-.64,4.61-1.91,6.57.48,1.85-.1,3.69-.42,5.51A137.94,137.94,0,0,0,667.28,200c2.11,3.91,5.08,7.31,7.26,11.19,1.9,4.4,4.83,8.27,6.59,12.74a252.15,252.15,0,0,1,12.26,30.59c.91,3.85,2.89,7.35,3.62,11.26,1.17,5.83,3.62,11.31,4.69,17.17.92,5.26,2.78,10.32,3.55,15.61.82,4.58,2.36,9,2.91,13.66.19,2.54,1.25,4.93,1.24,7.5a39,39,0,0,0,.94,7.45c.78,3.6.84,7.32,1.48,11,.85,3.06,2.14,6,2.5,9.2.21,2.59,1.17,5.07,1.15,7.69,0,4,.75,8,.28,12a61.9,61.9,0,0,1-3.41,14.68,15.19,15.19,0,0,1-8.18,8.35c-5.54,1.13-11.13-1-15.8-3.84a133.48,133.48,0,0,1-10.61-10.4c0-.23.14-.67.2-.89a4.53,4.53,0,0,1-2-2.65l-1.11-.79-.88-2.25a21.68,21.68,0,0,1-2.65-4.84c-1.52-1.74-1.68-4.15-3-6a31.06,31.06,0,0,0-2.14-5.55,5.84,5.84,0,0,1-.67-2.32c-.74-2-1.84-3.82-2.31-5.88-1.27-5.38-3.07-10.67-3.47-16.21a39.16,39.16,0,0,1-1.79-12,27,27,0,0,1-.72-8.72l-.82-1.46,1.13-.12-1-.21c.06-.45.2-1.34.27-1.79-1.22-3.65-.65-7.55-1.1-11.31a53.05,53.05,0,0,1-.33-6.9c-.28-2.23.12-4.47-.16-6.69-.35-1.73.9-3.71-.38-5.21,1.3-2.92,0-6.2.61-9.25a60.29,60.29,0,0,0-.55-7.6,72.75,72.75,0,0,1,.89-8.94c.15-1.3-.22-3.07,1.33-3.65l.81.71a9.74,9.74,0,0,0-1.94-2.25c-.07-3.65,1.14-7.2.71-10.86l.68-.05c-.38-2.54.9-5,.43-7.53-1.3,1.55-2.24,3.6-4.19,4.42a7.83,7.83,0,0,1-7.26-2.08c-6.17-4.87-9.57-12.38-11.34-19.86-.94-5.18-1.41-10.74.42-15.78,1.8-3.7,5-7.33,9.38-7.66a17,17,0,0,1,6.2.67c-1.53-5.31-3.38-10.51-5.23-15.72-4.46.07-9-.36-13.36.55-2.12.55-4-.82-5.64-1.91a8.53,8.53,0,0,1-.09-1.75c2.07-.69,4-2.07,6.3-1.9,3.44.2,6.88-.14,10.33-.15a18.82,18.82,0,0,0-1.76-4.28c-2.2-3.57-4.15-7.38-7.18-10.34a4.36,4.36,0,0,0-4-1.44,10.06,10.06,0,0,0-7,6.32c-1.23,3.34.78,7.46-1.87,10.32-1.39,1.7-3.15-.74-4.46-1.44.35-3.41.39-6.91,1.32-10.23,1.77-3.84,4.7-7.27,8.77-8.76,3-1.14,6.65-1.65,9.46.24,3.74,2.38,6,6.33,8.32,9.94,2.13,3.18,3.27,6.87,5.15,10.19,5.84.35,11.55,1.65,17.36,2.33.21-3.33,2.17-6.28,2.11-9.65s2.38-6.64,2.06-10.13l.89.14c-.15-1-.58-2.18.35-3a6.61,6.61,0,0,1,1.11-5c0-3,1.61-5.7,1.87-8.69.89-3.66,1.42-7.51,3.3-10.83a2.5,2.5,0,0,0-.11-1.45c.23-.51.48-1,.74-1.54,0-2.16,1.27-4,1.94-6l1.07.11a17.08,17.08,0,0,0-1-3.74l1.94-.17-1.9-.09c0-1.51.64-2.12,2-1.84l-1.35-.53a3.68,3.68,0,0,0,.58-2.73l1.22.06c-1-3.69,1.59-6.74,2.56-10.07-.14-1.14.4-1.58,1.63-1.32l-1.67-.4c1.4-1.86.72-4.78,3-6l-1.23.38a3.79,3.79,0,0,1,2.28-2.89l-1.62,0a68.07,68.07,0,0,0,3-13,4.64,4.64,0,0,1,2.15-2.79c-.27-.41-.54-.83-.78-1.23.2-2,1.26-3.83,1.47-5.84a36.68,36.68,0,0,1,2.82-10.15,21.84,21.84,0,0,1,.54-6.18c1.08-2.86.86-6,1.53-8.91,1.21-7.85,2-16.28-1.1-23.81C697.7,5.82,693.3,4,690.21,5.8a30.89,30.89,0,0,0-8,6.9c-2.68,3.4-5.65,6.61-7.84,10.37-4.05,6.12-6.38,13.16-10.09,19.47A60.5,60.5,0,0,1,668.11,31a14.89,14.89,0,0,0,1.62-4.8,10,10,0,0,0,2.38-4.12,32.32,32.32,0,0,0,3.37-4.6c1.35-2.38,4.07-3.74,4.9-6.45,4-2.2,6.52-6.39,10.77-8.15" transform="translate(-3.1 -2.4)"/></g></g></svg>