<svg id="Layer_1" data-name="Layer 1" xmlns="http://www.w3.org/2000/svg" xmlns:xlink="http://www.w3.org/1999/xlink" viewBox="0 0 730.62 132.05"><defs><style>.cls-1{fill:none;}.cls-2{clip-path:url(#clip-path);}.cls-3{fill:#fff;}.cls-3,.cls-4,.cls-5{fill-rule:evenodd;}.cls-4{fill:#007e32;}.cls-5{fill:#d61c26;}</style><clipPath id="clip-path" transform="translate(-48.23 -201.24)"><rect class="cls-1" width="841.89" height="595.28"/></clipPath></defs><title>Francesca_Nocera logo</title><g class="cls-2"><path class="cls-3" d="M56.11,241.7H70.17c-.67,2.35-1,3.61-1,3.76H80.67l-2.17,7.83H67q-.24.19-2.62,9c-.06.08-.75,2.52-2.09,7.33H48.23Zm.15-11.19H93L89.86,241.8H80.05l.78-2.78h-27Z" transform="translate(-48.23 -201.24)"/><path class="cls-3" d="M94.7,241.7h14.06l-7.88,27.93h-14Zm.16-11.19h31.82c3.28,0,5.16,1.28,5.64,3.86a4.28,4.28,0,0,1,.15,1.29v.59a26.29,26.29,0,0,1-1.7,7.53,15,15,0,0,1-2.62,6.44c-1.49,1.57-2.45,2.4-2.86,2.47v.1a3.06,3.06,0,0,1,1.94,2.68v.69a22.59,22.59,0,0,1-1,4.16v.2a1,1,0,0,0,1,.8h.38l-2.32,8.31H113.86c-1,0-1.79-.89-2.47-2.67a4.68,4.68,0,0,1-.31-1.69v-.49a53.93,53.93,0,0,1,1.54-6.34v-.3q0-1.08-1.23-1.29h-4.64l2.17-7.82h4.17q2,0,3.09-3a32,32,0,0,0,1.39-5.45c-.17-1.06-.58-1.59-1.24-1.59H92.46Z" transform="translate(-48.23 -201.24)"/><path class="cls-3" d="M136.47,241.7h14.05l-7.87,27.93H128.59Zm.15-11.19h31.9c3.28,0,5.16,1.28,5.63,3.86a3.94,3.94,0,0,1,.16,1.29v.59a22.67,22.67,0,0,1-1.39,6.54l-7.57,26.84h-14q2.63-9.47,4.63-16.34h-6.41l2.16-7.83h6.49c.77-2.87,1.16-4.39,1.16-4.55v-.11c-.11-1.18-.52-1.78-1.24-1.78H134.23Z" transform="translate(-48.23 -201.24)"/><path class="cls-3" d="M178.3,241.7h1.54l4.4,13.57-4,14.36h-9.81Zm.15-11.19h17.07l6.87,21.09h.08l5.95-21.09h9.81l-11,39.12h-15.6q-2-6.24-10-30.61h-5.48Z" transform="translate(-48.23 -201.24)"/><path class="cls-3" d="M218.37,241.7h14.06q-4.65,16.37-4.87,17.54v.09c.11,1.19.52,1.78,1.24,1.78h4.55c1.63,0,2.79-1.41,3.48-4.26h13.9v.1a106.38,106.38,0,0,1-3.16,10.61q-1.56,2.07-5,2.07H214.82c-1,0-1.79-.89-2.48-2.67a4.9,4.9,0,0,1-.3-1.69v-.49c0-.61.92-4.12,2.78-10.5Zm.15-11.19h31.9c3.28,0,5.16,1.28,5.64,3.86a3.94,3.94,0,0,1,.16,1.29v.59a22.55,22.55,0,0,1-1.32,6.34,2.05,2.05,0,0,0-.15.69H240.69v-.1a11,11,0,0,0,.54-2.57Q241,239,240,239H216.13Z" transform="translate(-48.23 -201.24)"/><path class="cls-3" d="M260.2,241.7h14.06c-.52,1.78-.85,3-1,3.76h11.51l-2.16,7.83H270.93c0,.19-.71,2.79-2.16,7.82h9.89l1.16-4.26h9.81v.1l-3.56,12.68H252.32Zm.15-11.19h36.77L294,241.8h-9.81l.77-2.78H258Z" transform="translate(-48.23 -201.24)"/><path class="cls-3" d="M305.05,230.51h24.18c3.28,0,5.15,1.28,5.64,3.86a4.28,4.28,0,0,1,.15,1.29v.59a22.83,22.83,0,0,1-1.31,6.34,1.87,1.87,0,0,0-.16.69H319.5v-.1a11.4,11.4,0,0,0,.53-2.57c-.15-1.06-.57-1.59-1.23-1.59h-4.48c-1.62,0-2.75,1.35-3.4,4.07a1.21,1.21,0,0,0-.08.49v.1c.12,1.19.53,1.78,1.24,1.78H325q4.92,0,5.64,3.87a4.19,4.19,0,0,1,.15,1.29v.59A27.52,27.52,0,0,1,329,259c-1.39,5.48-2.34,8.46-2.85,8.91a6.24,6.24,0,0,1-4.72,1.68H293.69q-1.44,0-2.46-2.67a4.68,4.68,0,0,1-.31-1.69v-.49a67.77,67.77,0,0,1,2-7.93H307v.1a15.37,15.37,0,0,0-.54,2.29v.09c.11,1.19.53,1.78,1.24,1.78h4.55c1.94,0,3.26-2.11,3.94-6.33v-.2q0-1.1-1.23-1.29H298.33c-1,0-1.78-.89-2.47-2.67a4.72,4.72,0,0,1-.31-1.69V248q.22-1.36,4.1-14.66a4.29,4.29,0,0,1,2.47-2.38A8.11,8.11,0,0,1,305.05,230.51Z" transform="translate(-48.23 -201.24)"/><path class="cls-3" d="M337.46,241.7h14.06q-4.65,16.37-4.86,17.54v.09c.11,1.19.52,1.78,1.23,1.78h4.56c1.62,0,2.78-1.41,3.47-4.26h13.91v.1a108.08,108.08,0,0,1-3.17,10.61q-1.56,2.07-5,2.07H333.91c-1,0-1.78-.89-2.47-2.67a4.68,4.68,0,0,1-.31-1.69v-.49c0-.61.93-4.12,2.78-10.5Zm.16-11.19h31.9c3.28,0,5.16,1.28,5.63,3.86a3.94,3.94,0,0,1,.16,1.29v.59a22.83,22.83,0,0,1-1.31,6.34,2.1,2.1,0,0,0-.16.69h-14v-.1a11.6,11.6,0,0,0,.54-2.57c-.17-1.06-.58-1.59-1.24-1.59H335.23Z" transform="translate(-48.23 -201.24)"/><path class="cls-3" d="M379.3,241.7h14.05l-7.88,27.93H371.41Zm.15-11.19h31.9c3.28,0,5.15,1.28,5.63,3.86a4.23,4.23,0,0,1,.16,1.29v.59a22.67,22.67,0,0,1-1.39,6.54l-7.57,26.84H394.12q2.63-9.47,4.64-16.34h-6.41l2.16-7.83H401c.77-2.87,1.15-4.39,1.15-4.55v-.11c-.1-1.18-.52-1.78-1.23-1.78H377.05Z" transform="translate(-48.23 -201.24)"/><path class="cls-3" d="M157.91,304.31h1.55l4.4,13.57-4,14.37H150Zm.15-11.19h17.08l6.87,21.1h.08l5.94-21.1h9.81l-11,39.13H171.2q-2-6.25-10-30.61h-5.49Z" transform="translate(-48.23 -201.24)"/><path class="cls-3" d="M205.79,293.12H230c3.28,0,5.15,1.28,5.63,3.86a3.91,3.91,0,0,1,.16,1.28v.6a24.36,24.36,0,0,1-1.55,7q-5.64,20.1-6.64,23.47a4.32,4.32,0,0,1-2.47,2.38,8.11,8.11,0,0,1-2.93.5H194.43c-1,0-1.78-.9-2.47-2.68a4.67,4.67,0,0,1-.31-1.68v-.5q0-.92,2.78-10.5L198,304.31H212q-4.66,16.41-4.86,17.54v.1c.11,1.18.52,1.78,1.23,1.78H213q2.7,0,3.71-5.35,4.15-14.16,4.17-15.06v-.1c-.17-1.06-.58-1.58-1.24-1.58H198.76c1.1-4.38,2-6.8,2.7-7.24A7,7,0,0,1,205.79,293.12Z" transform="translate(-48.23 -201.24)"/><path class="cls-3" d="M238.27,304.31h14q-4.63,16.37-4.86,17.54v.1c.11,1.18.53,1.78,1.24,1.78h4.55c1.62,0,2.79-1.42,3.48-4.26h13.9v.09a105.08,105.08,0,0,1-3.17,10.61c-1,1.38-2.71,2.08-5,2.08H234.72c-1,0-1.79-.9-2.48-2.68a4.89,4.89,0,0,1-.31-1.68v-.5q0-.92,2.79-10.5Zm.15-11.19h31.91c3.27,0,5.15,1.28,5.63,3.86a4,4,0,0,1,.15,1.28v.6a22.46,22.46,0,0,1-1.31,6.34,2.05,2.05,0,0,0-.15.7H260.59v-.1a11.18,11.18,0,0,0,.54-2.58c-.16-1.06-.58-1.58-1.23-1.58H236Z" transform="translate(-48.23 -201.24)"/><path class="cls-3" d="M280.1,304.31h14.06c-.52,1.78-.85,3-1,3.77h11.51l-2.16,7.82H290.83q0,.28-2.16,7.83h9.89l1.16-4.26h9.81v.09L306,332.25H272.22Zm.15-11.19H317l-3.17,11.29H304l.77-2.77H277.86Z" transform="translate(-48.23 -201.24)"/><path class="cls-3" d="M318.69,304.31h14.06l-7.88,27.94H310.82Zm.16-11.19h31.82c3.28,0,5.16,1.28,5.64,3.86a4.2,4.2,0,0,1,.16,1.28v.6a26.39,26.39,0,0,1-1.71,7.53,14.83,14.83,0,0,1-2.62,6.44c-1.49,1.57-2.45,2.4-2.86,2.47v.1a3,3,0,0,1,1.93,2.68v.69a22.19,22.19,0,0,1-1,4.16v.2a1,1,0,0,0,1,.8h.39l-2.32,8.32H337.85c-1,0-1.79-.9-2.47-2.68a4.67,4.67,0,0,1-.31-1.68v-.5a53.93,53.93,0,0,1,1.54-6.34v-.29q0-1.1-1.23-1.29h-4.64l2.17-7.83h4.17q2,0,3.09-3a31.78,31.78,0,0,0,1.39-5.45c-.17-1.06-.58-1.58-1.24-1.58H316.45Z" transform="translate(-48.23 -201.24)"/><path class="cls-3" d="M360.45,304.31h14.06l-7.87,27.94H352.58Zm.16-11.19h31.9c3.28,0,5.16,1.28,5.64,3.86a4.25,4.25,0,0,1,.15,1.28v.6a22.67,22.67,0,0,1-1.39,6.54l-7.57,26.85H375.28q2.63-9.48,4.64-16.35h-6.41l2.16-7.82h6.49c.77-2.88,1.16-4.4,1.16-4.56v-.11c-.11-1.18-.53-1.77-1.24-1.77H358.22Z" transform="translate(-48.23 -201.24)"/><polygon class="cls-3" points="406.01 0.36 476.87 0.36 431.02 130.69 372.67 130.69 408.57 28.74 396.07 28.74 406.01 0.36"/><polygon class="cls-3" points="496.01 0.36 566.87 0.36 521.02 130.64 462.66 130.64 498.57 28.73 486.07 28.73 496.01 0.36"/><path class="cls-3" d="M660.21,297.29v.33q.7,6,5.14,6h18.91q12.07,0,16.35-21.2v-.67c0-2.43-1.7-3.86-5.12-4.3h-9.62q-16.89,0-21.81,8.94Q660.28,294.86,660.21,297.29Zm-5.76-96.05H754.81q20.4,0,23.4,12.91a11.37,11.37,0,0,1,.64,4.31v2q0,7.45-5.45,21.19a5.5,5.5,0,0,0-.65,2.32H714.4v-.33c1.5-4.11,2.25-7,2.25-8.61q-1-5.29-5.13-5.3h-18.6q-10,0-14.11,13.58a3.34,3.34,0,0,0-.32,1.67v.32q.69,6,5.13,6h53.55q20.42,0,23.4,12.91a11.24,11.24,0,0,1,.65,4.31v2q0,8.55-7.38,26.16-8.65,27.56-11.86,29.82-6.68,5.64-19.56,5.63H607.31q-6,0-10.26-8.94a13.32,13.32,0,0,1-1.28-5.63v-1.66q0-3.79,13.79-41.07,20.84-60.61,23.08-64.92Q638,201.24,654.45,201.24Z" transform="translate(-48.23 -201.24)"/><polygon class="cls-3" points="406.58 88.72 426.12 88.7 410.75 131.97 391.5 132.01 406.58 88.72"/><polygon class="cls-4" points="387.02 88.79 406.55 88.79 391.47 132.05 371.94 132.05 387.02 88.79"/><polygon class="cls-5" points="426.1 88.74 445.68 88.8 430.37 132.05 410.76 132.01 426.1 88.74"/></g></svg>