<svg xmlns="http://www.w3.org/2000/svg" viewBox="0 0 480 108.25"><defs><style>.cls-1{fill:#fff;}</style></defs><g id="Layer_2" data-name="Layer 2"><g id="Page_2" data-name="Page 2"><g id="Symbol"><path class="cls-1" d="M22.92,70.07l.55.72c5-5.67,11-12.24,18.28-19.51.09.06.21.08.15-.16-.31-.07-.26.08-.15.16C35,58,28.48,64.28,22.92,70.07Z"/><path class="cls-1" d="M47.38,46.15C54.54,39,61,33,66.57,28.05l-.65-.88c-5.7,5.65-11.86,12.32-18.54,19-.09-.07-.2-.09-.15.15C47.54,46.38,47.48,46.23,47.38,46.15Z"/><path class="cls-1" d="M48.49,4.46,85.65,54.12,48.49,103.79,11.33,54.12,48.49,4.46m0-4.46L8,54.12l40.49,54.13L89,54.12,48.49,0Z"/><path class="cls-1" d="M48.49,41A12.87,12.87,0,0,0,43.7,65.79l9.75-9.32-7.61,10A12.87,12.87,0,1,0,48.49,41Z"/><path class="cls-1" d="M88.75,12c-.67-.66-2.23-2.22-15.68,8.67-1.78,1.44-3.62,3.08-5.51,4.86l.79,1.05C79.43,17,86.41,12.43,87.66,13c1,2-11.18,18.56-35.7,43.07s-40.89,36.57-43,35.71c-.53-1.34,3.79-8.25,13-19.12l-.67-.89c-1.7,1.85-3.28,3.66-4.7,5.41C5.62,90.64,7.18,92.2,7.84,92.86A1.42,1.42,0,0,0,9,93.34c1.54,0,5.13-1.52,14.54-9.14C31.87,77.44,42.36,67.83,53,57.15S73.32,36,80.08,27.64C91,14.18,89.41,12.63,88.75,12Z"/><g id="_Path_" data-name="&lt;Path&gt;"><path class="cls-1" d="M44.51,28.67a3.79,3.79,0,1,0,3.79-3.79A3.79,3.79,0,0,0,44.51,28.67Zm3.79-1.5a1.5,1.5,0,1,1-1.5,1.5A1.5,1.5,0,0,1,48.3,27.17Z"/></g><g id="_Path_2" data-name="&lt;Path&gt;"><path class="cls-1" d="M19.56,16.08H22a4.84,4.84,0,0,1,4.84-4.84V8.82A4.84,4.84,0,0,1,22,4H19.56a4.85,4.85,0,0,1-4.84,4.85v2.42A4.84,4.84,0,0,1,19.56,16.08ZM20.77,8a7.41,7.41,0,0,0,2.05,2,7.37,7.37,0,0,0-2.05,2h0a7.29,7.29,0,0,0-2-2h0A7.24,7.24,0,0,0,20.77,8Z"/></g><circle class="cls-1" cx="3.03" cy="72.15" r="3.03"/><polygon class="cls-1" points="96.88 20.34 95.57 23.57 92.34 24.89 95.57 26.2 96.88 29.43 98.2 26.2 101.42 24.89 98.2 23.57 96.88 20.34"/><g id="_Path_3" data-name="&lt;Path&gt;"><path class="cls-1" d="M69.88,97.13a3.79,3.79,0,1,0,3.78-3.79A3.78,3.78,0,0,0,69.88,97.13Zm3.78-1.5a1.5,1.5,0,1,1-1.5,1.5A1.5,1.5,0,0,1,73.66,95.63Z"/></g><polygon class="cls-1" points="72.16 49.58 70.85 52.81 67.62 54.12 70.85 55.44 72.16 58.66 73.48 55.44 76.7 54.12 73.48 52.81 72.16 49.58"/></g><g id="Text_1" data-name="Text 1"><path class="cls-1" d="M176,34.44V48.08a2.45,2.45,0,0,1-.38,1.29A28,28,0,0,1,165.22,59a28.63,28.63,0,0,1-14,3.55,28.05,28.05,0,0,1-14.51-3.93A29.3,29.3,0,0,1,126.11,48a28.48,28.48,0,0,1-3.92-14.62,28.32,28.32,0,0,1,3.92-14.59A29.08,29.08,0,0,1,136.7,8.25a28.74,28.74,0,0,1,26.12-1.41,29.28,29.28,0,0,1,9.56,6.81l-8,7.62a17.73,17.73,0,0,0-5.9-4.38,17.17,17.17,0,0,0-7.27-1.56,17.35,17.35,0,0,0-9,2.43,18.47,18.47,0,0,0-6.55,6.59,18,18,0,0,0,0,18.09,18.58,18.58,0,0,0,6.55,6.66,17.12,17.12,0,0,0,9,2.48,17.61,17.61,0,0,0,7.65-1.68,17.79,17.79,0,0,0,6.06-4.64V34.44Z"/><path class="cls-1" d="M226.23,61.78,210.77,25.3,195.15,61.78H182.82L205.74,8a5.36,5.36,0,0,1,2.06-2.4,5.48,5.48,0,0,1,3-.88,5,5,0,0,1,2.9.88,5.11,5.11,0,0,1,1.9,2.4l22.92,53.76Z"/><path class="cls-1" d="M292.11,50.74v11H254.94a5.72,5.72,0,0,1-5.71-5.63V5.43h11V50.74Z"/><path class="cls-1" d="M342.37,61.78,326.91,25.3,311.3,61.78H299L321.89,8a5.34,5.34,0,0,1,2.05-2.4A5.51,5.51,0,0,1,327,4.74a5,5,0,0,1,2.89.88A5.06,5.06,0,0,1,331.79,8l22.92,53.76Z"/><path class="cls-1" d="M396.07,33.61,416.4,61.78H403L389.37,42.9,375.74,61.78H362.33l20.34-28.17L362.33,5.43h13.41l13.63,18.88L403,5.43h13.4Z"/><path class="cls-1" d="M446.11,43.81,423.26,5.43h13.1l15.31,26,15.23-26H480L457.15,43.81v18h-11Z"/></g><path class="cls-1" d="M270.09,101.89a14.66,14.66,0,0,1-5.29-5.32,14.57,14.57,0,0,1,0-14.6,14.53,14.53,0,0,1,5.29-5.27,14.46,14.46,0,0,1,14.47,0,14.45,14.45,0,0,1,5.3,5.23,14.75,14.75,0,0,1,0,14.66,14.56,14.56,0,0,1-5.28,5.32,14.41,14.41,0,0,1-14.51,0Zm11.75-4.75a9.13,9.13,0,0,0,3.28-3.31,8.93,8.93,0,0,0,1.21-4.57,8.76,8.76,0,0,0-1.21-4.51,9.23,9.23,0,0,0-3.28-3.29,8.89,8.89,0,0,0-9,0,9.13,9.13,0,0,0-3.27,3.29,9,9,0,0,0,0,9,9.27,9.27,0,0,0,3.27,3.34,8.86,8.86,0,0,0,9,0Z"/><path class="cls-1" d="M310.16,80.81V86.6h14.43v5.52H310.16v11.35h-5.52V78.11a2.67,2.67,0,0,1,.83-2,2.75,2.75,0,0,1,2-.84h18.24v5.52Z"/><path class="cls-1" d="M374.61,103.47l-7.73-18.24-7.81,18.24H352.9l11.46-26.89a2.74,2.74,0,0,1,1-1.2,2.8,2.8,0,0,1,1.52-.43,2.52,2.52,0,0,1,1.45.43,2.57,2.57,0,0,1,.95,1.2l11.47,26.89Z"/><path class="cls-1" d="M407.71,94.29h-5.94v9.18h-5.52V78.11a2.67,2.67,0,0,1,.83-2,2.75,2.75,0,0,1,2-.84h11.42a9.45,9.45,0,0,1,4.86,1.31,9.75,9.75,0,0,1,3.54,3.56A9.45,9.45,0,0,1,420.23,85a8.77,8.77,0,0,1-1.82,5.52,9.43,9.43,0,0,1-4.8,3.27l6.78,9.64h-6.32Zm-5.94-5.14h8.75a4.07,4.07,0,0,0,3-1.2A3.91,3.91,0,0,0,414.71,85a4.07,4.07,0,0,0-1.22-3,4,4,0,0,0-3-1.24h-8.75Z"/><path class="cls-1" d="M457.57,80.81h-9.32v22.66h-5.53V80.81h-9.33V75.29h24.18Z"/></g></g></svg>